solid OpenSCAD_Model
  facet normal 1 -0 0
    outer loop
      vertex 76.85 49.9704 2.3
      vertex 76.85 50 0
      vertex 76.85 50 2.3
    endloop
  endfacet
  facet normal 1 0 0
    outer loop
      vertex 76.85 50 0
      vertex 76.85 49.9704 2.3
      vertex 76.85 49.9704 0
    endloop
  endfacet
  facet normal 0 0 1
    outer loop
      vertex 76.85 50 2.3
      vertex 15 50 2.3
      vertex 76.85 49.9704 2.3
    endloop
  endfacet
  facet normal 0 0 1
    outer loop
      vertex 76.85 49.9704 2.3
      vertex 91.85 35 2.3
      vertex 91.7317 36.88 2.3
    endloop
  endfacet
  facet normal 0 0 1
    outer loop
      vertex 76.85 49.9704 2.3
      vertex 91.7317 36.88 2.3
      vertex 91.3787 38.7303 2.3
    endloop
  endfacet
  facet normal 0 0 1
    outer loop
      vertex 76.85 49.9704 2.3
      vertex 91.3787 38.7303 2.3
      vertex 90.7966 40.5219 2.3
    endloop
  endfacet
  facet normal 0 0 1
    outer loop
      vertex 76.85 49.9704 2.3
      vertex 90.7966 40.5219 2.3
      vertex 89.9946 42.2263 2.3
    endloop
  endfacet
  facet normal 0 0 1
    outer loop
      vertex 76.85 49.9704 2.3
      vertex 89.9946 42.2263 2.3
      vertex 88.9853 43.8168 2.3
    endloop
  endfacet
  facet normal 0 0 1
    outer loop
      vertex 76.85 49.9704 2.3
      vertex 88.9853 43.8168 2.3
      vertex 87.7845 45.2682 2.3
    endloop
  endfacet
  facet normal 0 0 1
    outer loop
      vertex 76.85 49.9704 2.3
      vertex 87.7845 45.2682 2.3
      vertex 86.4114 46.5577 2.3
    endloop
  endfacet
  facet normal 0 0 1
    outer loop
      vertex 76.85 49.9704 2.3
      vertex 86.4114 46.5577 2.3
      vertex 84.8874 47.6649 2.3
    endloop
  endfacet
  facet normal 0 0 1
    outer loop
      vertex 76.85 49.9704 2.3
      vertex 84.8874 47.6649 2.3
      vertex 83.2367 48.5724 2.3
    endloop
  endfacet
  facet normal 0 0 1
    outer loop
      vertex 76.85 49.9704 2.3
      vertex 83.2367 48.5724 2.3
      vertex 81.4853 49.2658 2.3
    endloop
  endfacet
  facet normal 0 0 1
    outer loop
      vertex 76.85 49.9704 2.3
      vertex 81.4853 49.2658 2.3
      vertex 79.6607 49.7343 2.3
    endloop
  endfacet
  facet normal -0 0 1
    outer loop
      vertex 76.85 49.9704 2.3
      vertex 79.6607 49.7343 2.3
      vertex 77.7919 49.9704 2.3
    endloop
  endfacet
  facet normal 0 0 1
    outer loop
      vertex 91.85 35 2.3
      vertex 76.85 49.9704 2.3
      vertex 91.85 0 2.3
    endloop
  endfacet
  facet normal 0 0 1
    outer loop
      vertex 15 49.9704 2.3
      vertex 76.85 49.9704 2.3
      vertex 15 50 2.3
    endloop
  endfacet
  facet normal 0 0 1
    outer loop
      vertex 76.85 49.9704 2.3
      vertex 15 49.9704 2.3
      vertex 91.85 0 2.3
    endloop
  endfacet
  facet normal 0 0 1
    outer loop
      vertex 12.1893 49.7343 2.3
      vertex 15 49.9704 2.3
      vertex 14.0581 49.9704 2.3
    endloop
  endfacet
  facet normal 0 0 1
    outer loop
      vertex 15 49.9704 2.3
      vertex 12.1893 49.7343 2.3
      vertex 0 35 2.3
    endloop
  endfacet
  facet normal 0 0 1
    outer loop
      vertex 0 35 2.3
      vertex 12.1893 49.7343 2.3
      vertex 10.3647 49.2658 2.3
    endloop
  endfacet
  facet normal 0 0 1
    outer loop
      vertex 0 35 2.3
      vertex 10.3647 49.2658 2.3
      vertex 8.61331 48.5724 2.3
    endloop
  endfacet
  facet normal 0 0 1
    outer loop
      vertex 0 35 2.3
      vertex 8.61331 48.5724 2.3
      vertex 6.9626 47.6649 2.3
    endloop
  endfacet
  facet normal 0 0 1
    outer loop
      vertex 0 35 2.3
      vertex 6.9626 47.6649 2.3
      vertex 5.43864 46.5577 2.3
    endloop
  endfacet
  facet normal 0 0 1
    outer loop
      vertex 0 35 2.3
      vertex 5.43864 46.5577 2.3
      vertex 4.06547 45.2682 2.3
    endloop
  endfacet
  facet normal 0 0 1
    outer loop
      vertex 0 35 2.3
      vertex 4.06547 45.2682 2.3
      vertex 2.86474 43.8168 2.3
    endloop
  endfacet
  facet normal 0 0 1
    outer loop
      vertex 0 35 2.3
      vertex 2.86474 43.8168 2.3
      vertex 1.8554 42.2263 2.3
    endloop
  endfacet
  facet normal 0 0 1
    outer loop
      vertex 0 35 2.3
      vertex 1.8554 42.2263 2.3
      vertex 1.05335 40.5219 2.3
    endloop
  endfacet
  facet normal 0 0 1
    outer loop
      vertex 0 35 2.3
      vertex 1.05335 40.5219 2.3
      vertex 0.471252 38.7303 2.3
    endloop
  endfacet
  facet normal 0 0 1
    outer loop
      vertex 0 35 2.3
      vertex 0.471252 38.7303 2.3
      vertex 0.118279 36.88 2.3
    endloop
  endfacet
  facet normal 0 0 1
    outer loop
      vertex 15 49.9704 2.3
      vertex 0 35 2.3
      vertex 0 0 2.3
    endloop
  endfacet
  facet normal 0 0 1
    outer loop
      vertex 15 49.9704 2.3
      vertex 0 0 2.3
      vertex 91.85 0 2.3
    endloop
  endfacet
  facet normal 0 0 -1
    outer loop
      vertex 0 0 0
      vertex 44.425 4 0
      vertex 44.425 0 0
    endloop
  endfacet
  facet normal 0 0 -1
    outer loop
      vertex 44.425 4 0
      vertex 0 35 0
      vertex 15 49.9704 0
    endloop
  endfacet
  facet normal 0 -0 -1
    outer loop
      vertex 12.1893 49.7343 0
      vertex 15 49.9704 0
      vertex 0 35 0
    endloop
  endfacet
  facet normal -0 0 -1
    outer loop
      vertex 15 49.9704 0
      vertex 12.1893 49.7343 0
      vertex 14.0581 49.9704 0
    endloop
  endfacet
  facet normal 0 0 -1
    outer loop
      vertex 12.1893 49.7343 0
      vertex 0 35 0
      vertex 10.3647 49.2658 0
    endloop
  endfacet
  facet normal 0 0 -1
    outer loop
      vertex 10.3647 49.2658 0
      vertex 0 35 0
      vertex 8.61331 48.5724 0
    endloop
  endfacet
  facet normal 0 0 -1
    outer loop
      vertex 8.61331 48.5724 0
      vertex 0 35 0
      vertex 6.9626 47.6649 0
    endloop
  endfacet
  facet normal 0 0 -1
    outer loop
      vertex 6.9626 47.6649 0
      vertex 0 35 0
      vertex 5.43864 46.5577 0
    endloop
  endfacet
  facet normal 0 0 -1
    outer loop
      vertex 5.43864 46.5577 0
      vertex 0 35 0
      vertex 4.06547 45.2682 0
    endloop
  endfacet
  facet normal 0 0 -1
    outer loop
      vertex 4.06547 45.2682 0
      vertex 0 35 0
      vertex 2.86474 43.8168 0
    endloop
  endfacet
  facet normal 0 0 -1
    outer loop
      vertex 2.86474 43.8168 0
      vertex 0 35 0
      vertex 1.8554 42.2263 0
    endloop
  endfacet
  facet normal 0 0 -1
    outer loop
      vertex 1.8554 42.2263 0
      vertex 0 35 0
      vertex 1.05335 40.5219 0
    endloop
  endfacet
  facet normal 0 0 -1
    outer loop
      vertex 1.05335 40.5219 0
      vertex 0 35 0
      vertex 0.471252 38.7303 0
    endloop
  endfacet
  facet normal -0 0 -1
    outer loop
      vertex 44.425 4 0
      vertex 0 0 0
      vertex 0 35 0
    endloop
  endfacet
  facet normal 0 0 -1
    outer loop
      vertex 0.471252 38.7303 0
      vertex 0 35 0
      vertex 0.118279 36.88 0
    endloop
  endfacet
  facet normal 0 0 -1
    outer loop
      vertex 47.425 4 0
      vertex 91.85 35 0
      vertex 91.85 0 0
    endloop
  endfacet
  facet normal 0 -0 -1
    outer loop
      vertex 76.85 49.9704 0
      vertex 91.85 35 0
      vertex 47.425 4 0
    endloop
  endfacet
  facet normal 0 0 -1
    outer loop
      vertex 91.85 35 0
      vertex 76.85 49.9704 0
      vertex 91.7317 36.88 0
    endloop
  endfacet
  facet normal 0 0 -1
    outer loop
      vertex 91.7317 36.88 0
      vertex 76.85 49.9704 0
      vertex 91.3787 38.7303 0
    endloop
  endfacet
  facet normal 0 0 -1
    outer loop
      vertex 91.3787 38.7303 0
      vertex 76.85 49.9704 0
      vertex 90.7966 40.5219 0
    endloop
  endfacet
  facet normal 0 0 -1
    outer loop
      vertex 90.7966 40.5219 0
      vertex 76.85 49.9704 0
      vertex 89.9946 42.2263 0
    endloop
  endfacet
  facet normal 0 0 -1
    outer loop
      vertex 89.9946 42.2263 0
      vertex 76.85 49.9704 0
      vertex 88.9853 43.8168 0
    endloop
  endfacet
  facet normal 0 0 -1
    outer loop
      vertex 87.7845 45.2682 0
      vertex 76.85 49.9704 0
      vertex 86.4114 46.5577 0
    endloop
  endfacet
  facet normal 0 0 -1
    outer loop
      vertex 86.4114 46.5577 0
      vertex 76.85 49.9704 0
      vertex 84.8874 47.6649 0
    endloop
  endfacet
  facet normal 0 0 -1
    outer loop
      vertex 84.8874 47.6649 0
      vertex 76.85 49.9704 0
      vertex 83.2367 48.5724 0
    endloop
  endfacet
  facet normal 0 0 -1
    outer loop
      vertex 83.2367 48.5724 0
      vertex 76.85 49.9704 0
      vertex 81.4853 49.2658 0
    endloop
  endfacet
  facet normal 0 0 -1
    outer loop
      vertex 81.4853 49.2658 0
      vertex 76.85 49.9704 0
      vertex 79.6607 49.7343 0
    endloop
  endfacet
  facet normal 0 0 -1
    outer loop
      vertex 79.6607 49.7343 0
      vertex 76.85 49.9704 0
      vertex 77.7919 49.9704 0
    endloop
  endfacet
  facet normal 0 0 -1
    outer loop
      vertex 47.425 4 0
      vertex 91.85 0 0
      vertex 47.425 0 0
    endloop
  endfacet
  facet normal 0 0 -1
    outer loop
      vertex 88.9853 43.8168 0
      vertex 76.85 49.9704 0
      vertex 87.7845 45.2682 0
    endloop
  endfacet
  facet normal 0 0 -1
    outer loop
      vertex 44.425 4 0
      vertex 76.85 49.9704 0
      vertex 47.425 4 0
    endloop
  endfacet
  facet normal 0 0 -1
    outer loop
      vertex 15 49.9704 0
      vertex 76.85 49.9704 0
      vertex 44.425 4 0
    endloop
  endfacet
  facet normal 0 0 -1
    outer loop
      vertex 76.85 49.9704 0
      vertex 15 49.9704 0
      vertex 76.85 50 0
    endloop
  endfacet
  facet normal -0 0 -1
    outer loop
      vertex 76.85 50 0
      vertex 15 49.9704 0
      vertex 15 50 0
    endloop
  endfacet
  facet normal -1 0 0
    outer loop
      vertex 15 49.9704 0
      vertex 15 50 2.3
      vertex 15 50 0
    endloop
  endfacet
  facet normal -1 -0 0
    outer loop
      vertex 15 50 2.3
      vertex 15 49.9704 0
      vertex 15 49.9704 2.3
    endloop
  endfacet
  facet normal 0 1 -0
    outer loop
      vertex 76.85 50 0
      vertex 15 50 2.3
      vertex 76.85 50 2.3
    endloop
  endfacet
  facet normal 0 1 0
    outer loop
      vertex 15 50 2.3
      vertex 76.85 50 0
      vertex 15 50 0
    endloop
  endfacet
  facet normal 0 -1 0
    outer loop
      vertex 0 0 2.3
      vertex 44.425 0 1.2
      vertex 91.85 0 2.3
    endloop
  endfacet
  facet normal 0 -1 0
    outer loop
      vertex 0 0 0
      vertex 44.425 0 1.2
      vertex 0 0 2.3
    endloop
  endfacet
  facet normal 0 -1 -0
    outer loop
      vertex 44.425 0 1.2
      vertex 0 0 0
      vertex 44.425 0 0
    endloop
  endfacet
  facet normal 0 -1 0
    outer loop
      vertex 47.425 0 1.2
      vertex 91.85 0 2.3
      vertex 44.425 0 1.2
    endloop
  endfacet
  facet normal 0 -1 0
    outer loop
      vertex 91.85 0 0
      vertex 47.425 0 1.2
      vertex 47.425 0 0
    endloop
  endfacet
  facet normal 0 -1 0
    outer loop
      vertex 47.425 0 1.2
      vertex 91.85 0 0
      vertex 91.85 0 2.3
    endloop
  endfacet
  facet normal -1 0 0
    outer loop
      vertex 0 0 0
      vertex 0 35 2.3
      vertex 0 35 0
    endloop
  endfacet
  facet normal -1 -0 0
    outer loop
      vertex 0 35 2.3
      vertex 0 0 0
      vertex 0 0 2.3
    endloop
  endfacet
  facet normal 1 -0 0
    outer loop
      vertex 91.85 0 2.3
      vertex 91.85 35 0
      vertex 91.85 35 2.3
    endloop
  endfacet
  facet normal 1 0 0
    outer loop
      vertex 91.85 35 0
      vertex 91.85 0 2.3
      vertex 91.85 0 0
    endloop
  endfacet
  facet normal 0 1 -0
    outer loop
      vertex 15 49.9704 0
      vertex 14.0581 49.9704 2.3
      vertex 15 49.9704 2.3
    endloop
  endfacet
  facet normal 0 1 0
    outer loop
      vertex 14.0581 49.9704 2.3
      vertex 15 49.9704 0
      vertex 14.0581 49.9704 0
    endloop
  endfacet
  facet normal -0.684549 0.728967 0
    outer loop
      vertex 5.43864 46.5577 0
      vertex 4.06547 45.2682 2.3
      vertex 5.43864 46.5577 2.3
    endloop
  endfacet
  facet normal -0.684549 0.728967 0
    outer loop
      vertex 4.06547 45.2682 2.3
      vertex 5.43864 46.5577 0
      vertex 4.06547 45.2682 0
    endloop
  endfacet
  facet normal -0.125341 0.992114 0
    outer loop
      vertex 14.0581 49.9704 0
      vertex 12.1893 49.7343 2.3
      vertex 14.0581 49.9704 2.3
    endloop
  endfacet
  facet normal -0.125341 0.992114 0
    outer loop
      vertex 12.1893 49.7343 2.3
      vertex 14.0581 49.9704 0
      vertex 12.1893 49.7343 0
    endloop
  endfacet
  facet normal -0.770506 0.637433 0
    outer loop
      vertex 2.86474 43.8168 0
      vertex 4.06547 45.2682 2.3
      vertex 4.06547 45.2682 0
    endloop
  endfacet
  facet normal -0.770506 0.637433 0
    outer loop
      vertex 4.06547 45.2682 2.3
      vertex 2.86474 43.8168 0
      vertex 2.86474 43.8168 2.3
    endloop
  endfacet
  facet normal -0.587778 0.809022 0
    outer loop
      vertex 6.9626 47.6649 0
      vertex 5.43864 46.5577 2.3
      vertex 6.9626 47.6649 2.3
    endloop
  endfacet
  facet normal -0.587778 0.809022 0
    outer loop
      vertex 5.43864 46.5577 2.3
      vertex 6.9626 47.6649 0
      vertex 5.43864 46.5577 0
    endloop
  endfacet
  facet normal -0.982286 0.187386 0
    outer loop
      vertex 0.118279 36.88 0
      vertex 0.471252 38.7303 2.3
      vertex 0.471252 38.7303 0
    endloop
  endfacet
  facet normal -0.982286 0.187386 0
    outer loop
      vertex 0.471252 38.7303 2.3
      vertex 0.118279 36.88 0
      vertex 0.118279 36.88 2.3
    endloop
  endfacet
  facet normal -0.48176 0.876303 0
    outer loop
      vertex 8.61331 48.5724 0
      vertex 6.9626 47.6649 2.3
      vertex 8.61331 48.5724 2.3
    endloop
  endfacet
  facet normal -0.48176 0.876303 0
    outer loop
      vertex 6.9626 47.6649 2.3
      vertex 8.61331 48.5724 0
      vertex 6.9626 47.6649 0
    endloop
  endfacet
  facet normal -0.904823 0.425788 0
    outer loop
      vertex 1.05335 40.5219 0
      vertex 1.8554 42.2263 2.3
      vertex 1.8554 42.2263 0
    endloop
  endfacet
  facet normal -0.904823 0.425788 0
    outer loop
      vertex 1.8554 42.2263 2.3
      vertex 1.05335 40.5219 0
      vertex 1.05335 40.5219 2.3
    endloop
  endfacet
  facet normal -0.368113 0.929781 0
    outer loop
      vertex 10.3647 49.2658 0
      vertex 8.61331 48.5724 2.3
      vertex 10.3647 49.2658 2.3
    endloop
  endfacet
  facet normal -0.368113 0.929781 0
    outer loop
      vertex 8.61331 48.5724 2.3
      vertex 10.3647 49.2658 0
      vertex 8.61331 48.5724 0
    endloop
  endfacet
  facet normal -0.844333 0.535818 0
    outer loop
      vertex 1.8554 42.2263 0
      vertex 2.86474 43.8168 2.3
      vertex 2.86474 43.8168 0
    endloop
  endfacet
  facet normal -0.844333 0.535818 0
    outer loop
      vertex 2.86474 43.8168 2.3
      vertex 1.8554 42.2263 0
      vertex 1.8554 42.2263 2.3
    endloop
  endfacet
  facet normal -0.248701 0.96858 0
    outer loop
      vertex 12.1893 49.7343 0
      vertex 10.3647 49.2658 2.3
      vertex 12.1893 49.7343 2.3
    endloop
  endfacet
  facet normal -0.248701 0.96858 0
    outer loop
      vertex 10.3647 49.2658 2.3
      vertex 12.1893 49.7343 0
      vertex 10.3647 49.2658 0
    endloop
  endfacet
  facet normal -0.998027 0.0627902 0
    outer loop
      vertex 0 35 0
      vertex 0.118279 36.88 2.3
      vertex 0.118279 36.88 0
    endloop
  endfacet
  facet normal -0.998027 0.0627902 0
    outer loop
      vertex 0.118279 36.88 2.3
      vertex 0 35 0
      vertex 0 35 2.3
    endloop
  endfacet
  facet normal -0.951061 0.309003 0
    outer loop
      vertex 0.471252 38.7303 0
      vertex 1.05335 40.5219 2.3
      vertex 1.05335 40.5219 0
    endloop
  endfacet
  facet normal -0.951061 0.309003 0
    outer loop
      vertex 1.05335 40.5219 2.3
      vertex 0.471252 38.7303 0
      vertex 0.471252 38.7303 2.3
    endloop
  endfacet
  facet normal 0.982284 0.1874 0
    outer loop
      vertex 91.7317 36.88 2.3
      vertex 91.3787 38.7303 0
      vertex 91.3787 38.7303 2.3
    endloop
  endfacet
  facet normal 0.982284 0.1874 0
    outer loop
      vertex 91.3787 38.7303 0
      vertex 91.7317 36.88 2.3
      vertex 91.7317 36.88 0
    endloop
  endfacet
  facet normal 0.998026 0.0628013 0
    outer loop
      vertex 91.85 35 2.3
      vertex 91.7317 36.88 0
      vertex 91.7317 36.88 2.3
    endloop
  endfacet
  facet normal 0.998026 0.0628013 0
    outer loop
      vertex 91.7317 36.88 0
      vertex 91.85 35 2.3
      vertex 91.85 35 0
    endloop
  endfacet
  facet normal 0.951061 0.309004 0
    outer loop
      vertex 91.3787 38.7303 2.3
      vertex 90.7966 40.5219 0
      vertex 90.7966 40.5219 2.3
    endloop
  endfacet
  facet normal 0.951061 0.309004 0
    outer loop
      vertex 90.7966 40.5219 0
      vertex 91.3787 38.7303 2.3
      vertex 91.3787 38.7303 0
    endloop
  endfacet
  facet normal 0.844343 0.535803 0
    outer loop
      vertex 89.9946 42.2263 2.3
      vertex 88.9853 43.8168 0
      vertex 88.9853 43.8168 2.3
    endloop
  endfacet
  facet normal 0.844343 0.535803 0
    outer loop
      vertex 88.9853 43.8168 0
      vertex 89.9946 42.2263 2.3
      vertex 89.9946 42.2263 0
    endloop
  endfacet
  facet normal 0.904833 0.425766 0
    outer loop
      vertex 90.7966 40.5219 2.3
      vertex 89.9946 42.2263 0
      vertex 89.9946 42.2263 2.3
    endloop
  endfacet
  facet normal 0.904833 0.425766 0
    outer loop
      vertex 89.9946 42.2263 0
      vertex 90.7966 40.5219 2.3
      vertex 90.7966 40.5219 0
    endloop
  endfacet
  facet normal 0 1 -0
    outer loop
      vertex 77.7919 49.9704 0
      vertex 76.85 49.9704 2.3
      vertex 77.7919 49.9704 2.3
    endloop
  endfacet
  facet normal 0 1 0
    outer loop
      vertex 76.85 49.9704 2.3
      vertex 77.7919 49.9704 0
      vertex 76.85 49.9704 0
    endloop
  endfacet
  facet normal 0.770488 0.637455 0
    outer loop
      vertex 88.9853 43.8168 2.3
      vertex 87.7845 45.2682 0
      vertex 87.7845 45.2682 2.3
    endloop
  endfacet
  facet normal 0.770488 0.637455 0
    outer loop
      vertex 87.7845 45.2682 0
      vertex 88.9853 43.8168 2.3
      vertex 88.9853 43.8168 0
    endloop
  endfacet
  facet normal 0.368112 0.929782 -0
    outer loop
      vertex 83.2367 48.5724 0
      vertex 81.4853 49.2658 2.3
      vertex 83.2367 48.5724 2.3
    endloop
  endfacet
  facet normal 0.368112 0.929782 0
    outer loop
      vertex 81.4853 49.2658 2.3
      vertex 83.2367 48.5724 0
      vertex 81.4853 49.2658 0
    endloop
  endfacet
  facet normal 0.125341 0.992114 -0
    outer loop
      vertex 79.6607 49.7343 0
      vertex 77.7919 49.9704 2.3
      vertex 79.6607 49.7343 2.3
    endloop
  endfacet
  facet normal 0.125341 0.992114 0
    outer loop
      vertex 77.7919 49.9704 2.3
      vertex 79.6607 49.7343 0
      vertex 77.7919 49.9704 0
    endloop
  endfacet
  facet normal 0.587768 0.80903 -0
    outer loop
      vertex 86.4114 46.5577 0
      vertex 84.8874 47.6649 2.3
      vertex 86.4114 46.5577 2.3
    endloop
  endfacet
  facet normal 0.587768 0.80903 0
    outer loop
      vertex 84.8874 47.6649 2.3
      vertex 86.4114 46.5577 0
      vertex 84.8874 47.6649 0
    endloop
  endfacet
  facet normal 0.481762 0.876302 -0
    outer loop
      vertex 84.8874 47.6649 0
      vertex 83.2367 48.5724 2.3
      vertex 84.8874 47.6649 2.3
    endloop
  endfacet
  facet normal 0.481762 0.876302 0
    outer loop
      vertex 83.2367 48.5724 2.3
      vertex 84.8874 47.6649 0
      vertex 83.2367 48.5724 0
    endloop
  endfacet
  facet normal 0.248701 0.96858 -0
    outer loop
      vertex 81.4853 49.2658 0
      vertex 79.6607 49.7343 2.3
      vertex 81.4853 49.2658 2.3
    endloop
  endfacet
  facet normal 0.248701 0.96858 0
    outer loop
      vertex 79.6607 49.7343 2.3
      vertex 81.4853 49.2658 0
      vertex 79.6607 49.7343 0
    endloop
  endfacet
  facet normal 0.684568 0.728949 -0
    outer loop
      vertex 87.7845 45.2682 0
      vertex 86.4114 46.5577 2.3
      vertex 87.7845 45.2682 2.3
    endloop
  endfacet
  facet normal 0.684568 0.728949 0
    outer loop
      vertex 86.4114 46.5577 2.3
      vertex 87.7845 45.2682 0
      vertex 86.4114 46.5577 0
    endloop
  endfacet
  facet normal -1 0 0
    outer loop
      vertex 47.425 0 0
      vertex 47.425 4 1.2
      vertex 47.425 4 0
    endloop
  endfacet
  facet normal -1 -0 0
    outer loop
      vertex 47.425 4 1.2
      vertex 47.425 0 0
      vertex 47.425 0 1.2
    endloop
  endfacet
  facet normal 0 0 -1
    outer loop
      vertex 44.425 0 1.2
      vertex 47.425 4 1.2
      vertex 47.425 0 1.2
    endloop
  endfacet
  facet normal -0 0 -1
    outer loop
      vertex 47.425 4 1.2
      vertex 44.425 0 1.2
      vertex 44.425 4 1.2
    endloop
  endfacet
  facet normal 1 -0 0
    outer loop
      vertex 44.425 0 1.2
      vertex 44.425 4 0
      vertex 44.425 4 1.2
    endloop
  endfacet
  facet normal 1 0 0
    outer loop
      vertex 44.425 4 0
      vertex 44.425 0 1.2
      vertex 44.425 0 0
    endloop
  endfacet
  facet normal 0 -1 0
    outer loop
      vertex 44.425 4 0
      vertex 47.425 4 1.2
      vertex 44.425 4 1.2
    endloop
  endfacet
  facet normal 0 -1 -0
    outer loop
      vertex 47.425 4 1.2
      vertex 44.425 4 0
      vertex 47.425 4 0
    endloop
  endfacet
endsolid OpenSCAD_Model
