solid OpenSCAD_Model
  facet normal 0.995282 0.0970256 0
    outer loop
      vertex 2 159 43.5
      vertex 3.88888 139.624 22.6875
      vertex 2 159 0
    endloop
  endfacet
  facet normal 0.995283 0.0970151 9.84624e-06
    outer loop
      vertex 2 159 43.5
      vertex 4.04717 138 23.625
      vertex 3.88888 139.624 22.6875
    endloop
  endfacet
  facet normal 0.995282 0.0970243 4.50158e-08
    outer loop
      vertex 9.06984 86.4771 43.5
      vertex 4.04717 138 23.625
      vertex 2 159 43.5
    endloop
  endfacet
  facet normal 0.995282 0.0970248 0
    outer loop
      vertex 4.20546 136.376 22.6875
      vertex 9.06984 86.4771 43.5
      vertex 4.20546 136.376 20.8125
    endloop
  endfacet
  facet normal 0.995283 0.0970184 -1.55165e-05
    outer loop
      vertex 4.04717 138 23.625
      vertex 9.06984 86.4771 43.5
      vertex 4.20546 136.376 22.6875
    endloop
  endfacet
  facet normal 0.995282 0.0970256 -0
    outer loop
      vertex 3.88888 139.624 20.8125
      vertex 2 159 0
      vertex 3.88888 139.624 22.6875
    endloop
  endfacet
  facet normal 0.995283 0.0970151 -9.84624e-06
    outer loop
      vertex 4.04717 138 19.875
      vertex 2 159 0
      vertex 3.88888 139.624 20.8125
    endloop
  endfacet
  facet normal 0.995283 0.0970184 1.55165e-05
    outer loop
      vertex 9.06984 86.4771 0
      vertex 4.04717 138 19.875
      vertex 4.20546 136.376 20.8125
    endloop
  endfacet
  facet normal 0.995282 0.0970248 -0
    outer loop
      vertex 9.06984 86.4771 0
      vertex 4.20546 136.376 20.8125
      vertex 9.06984 86.4771 43.5
    endloop
  endfacet
  facet normal 0.995282 0.0970243 -4.50158e-08
    outer loop
      vertex 4.04717 138 19.875
      vertex 9.06984 86.4771 0
      vertex 2 159 0
    endloop
  endfacet
  facet normal -1 0 0
    outer loop
      vertex 0 159 0
      vertex 0 139.624 20.8125
      vertex 0 159 43.5
    endloop
  endfacet
  facet normal -1 0 0
    outer loop
      vertex 0 159 0
      vertex 0 138 19.875
      vertex 0 139.624 20.8125
    endloop
  endfacet
  facet normal -1 0 0
    outer loop
      vertex 0 159 0
      vertex 0 136.376 20.8125
      vertex 0 138 19.875
    endloop
  endfacet
  facet normal -1 0 0
    outer loop
      vertex 0 136.376 20.8125
      vertex 0 26.1238 20.8125
      vertex 0 136.376 22.6875
    endloop
  endfacet
  facet normal -1 0 0
    outer loop
      vertex 0 159 0
      vertex 0 26.1238 20.8125
      vertex 0 136.376 20.8125
    endloop
  endfacet
  facet normal -1 0 0
    outer loop
      vertex 0 159 0
      vertex 0 24.5 19.875
      vertex 0 26.1238 20.8125
    endloop
  endfacet
  facet normal -1 -0 0
    outer loop
      vertex 0 22.8762 20.8125
      vertex 0 0 0
      vertex 0 22.8762 22.6875
    endloop
  endfacet
  facet normal -1 -0 0
    outer loop
      vertex 0 24.5 19.875
      vertex 0 0 0
      vertex 0 22.8762 20.8125
    endloop
  endfacet
  facet normal -1 0 0
    outer loop
      vertex 0 0 0
      vertex 0 24.5 19.875
      vertex 0 159 0
    endloop
  endfacet
  facet normal -1 0 0
    outer loop
      vertex 0 139.624 22.6875
      vertex 0 159 43.5
      vertex 0 139.624 20.8125
    endloop
  endfacet
  facet normal -1 0 0
    outer loop
      vertex 0 138 23.625
      vertex 0 159 43.5
      vertex 0 139.624 22.6875
    endloop
  endfacet
  facet normal -1 0 0
    outer loop
      vertex 0 136.376 22.6875
      vertex 0 159 43.5
      vertex 0 138 23.625
    endloop
  endfacet
  facet normal -1 0 0
    outer loop
      vertex 0 26.1238 22.6875
      vertex 0 136.376 22.6875
      vertex 0 26.1238 20.8125
    endloop
  endfacet
  facet normal -1 0 0
    outer loop
      vertex 0 136.376 22.6875
      vertex 0 26.1238 22.6875
      vertex 0 159 43.5
    endloop
  endfacet
  facet normal -1 0 0
    outer loop
      vertex 0 24.5 23.625
      vertex 0 159 43.5
      vertex 0 26.1238 22.6875
    endloop
  endfacet
  facet normal -1 0 0
    outer loop
      vertex 0 24.5 23.625
      vertex 0 0 43.5
      vertex 0 159 43.5
    endloop
  endfacet
  facet normal -1 0 0
    outer loop
      vertex 0 22.8762 22.6875
      vertex 0 0 43.5
      vertex 0 24.5 23.625
    endloop
  endfacet
  facet normal -1 0 0
    outer loop
      vertex 0 0 43.5
      vertex 0 22.8762 22.6875
      vertex 0 0 0
    endloop
  endfacet
  facet normal 0 -1 0
    outer loop
      vertex 0 0 0
      vertex 22.5 0 43.5
      vertex 0 0 43.5
    endloop
  endfacet
  facet normal 0 -1 -0
    outer loop
      vertex 22.5 0 43.5
      vertex 0 0 0
      vertex 22.5 0 0
    endloop
  endfacet
  facet normal -0 0 1
    outer loop
      vertex 0 159 43.5
      vertex 9.06984 86.4771 43.5
      vertex 2 159 43.5
    endloop
  endfacet
  facet normal 0 0 1
    outer loop
      vertex 9.06984 86.4771 43.5
      vertex 0 0 43.5
      vertex 22.5 0 43.5
    endloop
  endfacet
  facet normal 0 0 1
    outer loop
      vertex 0 0 43.5
      vertex 9.06984 86.4771 43.5
      vertex 0 159 43.5
    endloop
  endfacet
  facet normal 0 1 -0
    outer loop
      vertex 2 159 0
      vertex 0 159 43.5
      vertex 2 159 43.5
    endloop
  endfacet
  facet normal 0 1 0
    outer loop
      vertex 0 159 43.5
      vertex 2 159 0
      vertex 0 159 0
    endloop
  endfacet
  facet normal 0 0 -1
    outer loop
      vertex 0 0 0
      vertex 9.06984 86.4771 0
      vertex 22.5 0 0
    endloop
  endfacet
  facet normal 0 0 -1
    outer loop
      vertex 0 159 0
      vertex 9.06984 86.4771 0
      vertex 0 0 0
    endloop
  endfacet
  facet normal 0 0 -1
    outer loop
      vertex 9.06984 86.4771 0
      vertex 0 159 0
      vertex 2 159 0
    endloop
  endfacet
  facet normal 0.988154 0.153464 0
    outer loop
      vertex 9.06984 86.4771 43.5
      vertex 18.4429 26.1238 22.6875
      vertex 9.06984 86.4771 0
    endloop
  endfacet
  facet normal 0.988154 0.153468 -1.2327e-05
    outer loop
      vertex 9.06984 86.4771 43.5
      vertex 18.6951 24.5 23.625
      vertex 18.4429 26.1238 22.6875
    endloop
  endfacet
  facet normal 0.988155 0.153462 0
    outer loop
      vertex 18.9473 22.8762 22.6875
      vertex 22.5 0 43.5
      vertex 18.9473 22.8762 20.8125
    endloop
  endfacet
  facet normal 0.988153 0.15347 9.00436e-06
    outer loop
      vertex 18.6951 24.5 23.625
      vertex 22.5 0 43.5
      vertex 18.9473 22.8762 22.6875
    endloop
  endfacet
  facet normal 0.988154 0.153463 1.26612e-06
    outer loop
      vertex 22.5 0 43.5
      vertex 18.6951 24.5 23.625
      vertex 9.06984 86.4771 43.5
    endloop
  endfacet
  facet normal 0.988154 0.153464 -0
    outer loop
      vertex 18.4429 26.1238 20.8125
      vertex 9.06984 86.4771 0
      vertex 18.4429 26.1238 22.6875
    endloop
  endfacet
  facet normal 0.988154 0.153468 1.2327e-05
    outer loop
      vertex 18.6951 24.5 19.875
      vertex 9.06984 86.4771 0
      vertex 18.4429 26.1238 20.8125
    endloop
  endfacet
  facet normal 0.988154 0.153463 -1.26612e-06
    outer loop
      vertex 18.6951 24.5 19.875
      vertex 22.5 0 0
      vertex 9.06984 86.4771 0
    endloop
  endfacet
  facet normal 0.988153 0.15347 -9.00436e-06
    outer loop
      vertex 18.9473 22.8762 20.8125
      vertex 22.5 0 0
      vertex 18.6951 24.5 19.875
    endloop
  endfacet
  facet normal 0.988155 0.153462 -0
    outer loop
      vertex 22.5 0 0
      vertex 18.9473 22.8762 20.8125
      vertex 22.5 0 43.5
    endloop
  endfacet
  facet normal 0 -1 0
    outer loop
      vertex 0 26.1238 20.8125
      vertex 18.4429 26.1238 22.6875
      vertex 0 26.1238 22.6875
    endloop
  endfacet
  facet normal 0 -1 -0
    outer loop
      vertex 18.4429 26.1238 22.6875
      vertex 0 26.1238 20.8125
      vertex 18.4429 26.1238 20.8125
    endloop
  endfacet
  facet normal 0 -0.499999 -0.866026
    outer loop
      vertex 0 24.5 23.625
      vertex 18.4429 26.1238 22.6875
      vertex 18.6951 24.5 23.625
    endloop
  endfacet
  facet normal -0 -0.499999 -0.866026
    outer loop
      vertex 18.4429 26.1238 22.6875
      vertex 0 24.5 23.625
      vertex 0 26.1238 22.6875
    endloop
  endfacet
  facet normal 0 -0.499999 0.866026
    outer loop
      vertex 0 24.5 19.875
      vertex 18.4429 26.1238 20.8125
      vertex 0 26.1238 20.8125
    endloop
  endfacet
  facet normal 0 -0.499999 0.866026
    outer loop
      vertex 18.4429 26.1238 20.8125
      vertex 0 24.5 19.875
      vertex 18.6951 24.5 19.875
    endloop
  endfacet
  facet normal 0 0.499999 -0.866026
    outer loop
      vertex 0 22.8762 22.6875
      vertex 18.6951 24.5 23.625
      vertex 18.9473 22.8762 22.6875
    endloop
  endfacet
  facet normal 0 0.499999 -0.866026
    outer loop
      vertex 18.6951 24.5 23.625
      vertex 0 22.8762 22.6875
      vertex 0 24.5 23.625
    endloop
  endfacet
  facet normal 0 1 -0
    outer loop
      vertex 18.9473 22.8762 20.8125
      vertex 0 22.8762 22.6875
      vertex 18.9473 22.8762 22.6875
    endloop
  endfacet
  facet normal 0 1 0
    outer loop
      vertex 0 22.8762 22.6875
      vertex 18.9473 22.8762 20.8125
      vertex 0 22.8762 20.8125
    endloop
  endfacet
  facet normal 0 0.499999 0.866026
    outer loop
      vertex 0 22.8762 20.8125
      vertex 18.6951 24.5 19.875
      vertex 0 24.5 19.875
    endloop
  endfacet
  facet normal 0 0.499999 0.866026
    outer loop
      vertex 18.6951 24.5 19.875
      vertex 0 22.8762 20.8125
      vertex 18.9473 22.8762 20.8125
    endloop
  endfacet
  facet normal 0 -1 0
    outer loop
      vertex 0 139.624 20.8125
      vertex 3.88888 139.624 22.6875
      vertex 0 139.624 22.6875
    endloop
  endfacet
  facet normal 0 -1 -0
    outer loop
      vertex 3.88888 139.624 22.6875
      vertex 0 139.624 20.8125
      vertex 3.88888 139.624 20.8125
    endloop
  endfacet
  facet normal 0 -0.499953 -0.866052
    outer loop
      vertex 0 138 23.625
      vertex 3.88888 139.624 22.6875
      vertex 4.04717 138 23.625
    endloop
  endfacet
  facet normal -0 -0.499953 -0.866052
    outer loop
      vertex 3.88888 139.624 22.6875
      vertex 0 138 23.625
      vertex 0 139.624 22.6875
    endloop
  endfacet
  facet normal 0 -0.499953 0.866052
    outer loop
      vertex 0 138 19.875
      vertex 3.88888 139.624 20.8125
      vertex 0 139.624 20.8125
    endloop
  endfacet
  facet normal 0 -0.499953 0.866052
    outer loop
      vertex 3.88888 139.624 20.8125
      vertex 0 138 19.875
      vertex 4.04717 138 19.875
    endloop
  endfacet
  facet normal 0 0.499953 -0.866052
    outer loop
      vertex 0 136.376 22.6875
      vertex 4.04717 138 23.625
      vertex 4.20546 136.376 22.6875
    endloop
  endfacet
  facet normal 0 0.499953 -0.866052
    outer loop
      vertex 4.04717 138 23.625
      vertex 0 136.376 22.6875
      vertex 0 138 23.625
    endloop
  endfacet
  facet normal 0 1 -0
    outer loop
      vertex 4.20546 136.376 20.8125
      vertex 0 136.376 22.6875
      vertex 4.20546 136.376 22.6875
    endloop
  endfacet
  facet normal 0 1 0
    outer loop
      vertex 0 136.376 22.6875
      vertex 4.20546 136.376 20.8125
      vertex 0 136.376 20.8125
    endloop
  endfacet
  facet normal 0 0.499953 0.866052
    outer loop
      vertex 0 136.376 20.8125
      vertex 4.04717 138 19.875
      vertex 0 138 19.875
    endloop
  endfacet
  facet normal 0 0.499953 0.866052
    outer loop
      vertex 4.04717 138 19.875
      vertex 0 136.376 20.8125
      vertex 4.20546 136.376 20.8125
    endloop
  endfacet
endsolid OpenSCAD_Model
