solid OpenSCAD_Model
  facet normal 0 -1 0
    outer loop
      vertex 0 18.1238 20.8125
      vertex 20.4795 18.1238 22.6875
      vertex 0 18.1238 22.6875
    endloop
  endfacet
  facet normal 0 -1 -0
    outer loop
      vertex 20.4795 18.1238 22.6875
      vertex 0 18.1238 20.8125
      vertex 20.4795 18.1238 20.8125
    endloop
  endfacet
  facet normal 0 -0.499999 -0.866026
    outer loop
      vertex 0 16.5 23.625
      vertex 20.4795 18.1238 22.6875
      vertex 20.7053 16.5 23.625
    endloop
  endfacet
  facet normal -0 -0.499999 -0.866026
    outer loop
      vertex 20.4795 18.1238 22.6875
      vertex 0 16.5 23.625
      vertex 0 18.1238 22.6875
    endloop
  endfacet
  facet normal 0 -0.499999 0.866026
    outer loop
      vertex 0 16.5 19.875
      vertex 20.4795 18.1238 20.8125
      vertex 0 18.1238 20.8125
    endloop
  endfacet
  facet normal 0 -0.499999 0.866026
    outer loop
      vertex 20.4795 18.1238 20.8125
      vertex 0 16.5 19.875
      vertex 20.7053 16.5 19.875
    endloop
  endfacet
  facet normal 0 0.499999 -0.866026
    outer loop
      vertex 0 14.8762 22.6875
      vertex 20.7053 16.5 23.625
      vertex 20.9311 14.8762 22.6875
    endloop
  endfacet
  facet normal 0 0.499999 -0.866026
    outer loop
      vertex 20.7053 16.5 23.625
      vertex 0 14.8762 22.6875
      vertex 0 16.5 23.625
    endloop
  endfacet
  facet normal 0 1 -0
    outer loop
      vertex 20.9311 14.8762 20.8125
      vertex 0 14.8762 22.6875
      vertex 20.9311 14.8762 22.6875
    endloop
  endfacet
  facet normal 0 1 0
    outer loop
      vertex 0 14.8762 22.6875
      vertex 20.9311 14.8762 20.8125
      vertex 0 14.8762 20.8125
    endloop
  endfacet
  facet normal 0 0.499999 0.866026
    outer loop
      vertex 0 14.8762 20.8125
      vertex 20.7053 16.5 19.875
      vertex 0 16.5 19.875
    endloop
  endfacet
  facet normal 0 0.499999 0.866026
    outer loop
      vertex 20.7053 16.5 19.875
      vertex 0 14.8762 20.8125
      vertex 20.9311 14.8762 20.8125
    endloop
  endfacet
  facet normal 0 -1 0
    outer loop
      vertex 0 131.124 20.8125
      vertex 4.76424 131.124 22.6875
      vertex 0 131.124 22.6875
    endloop
  endfacet
  facet normal 0 -1 -0
    outer loop
      vertex 4.76424 131.124 22.6875
      vertex 0 131.124 20.8125
      vertex 4.76424 131.124 20.8125
    endloop
  endfacet
  facet normal 0 -0.499953 -0.866052
    outer loop
      vertex 0 129.5 23.625
      vertex 4.76424 131.124 22.6875
      vertex 4.99007 129.5 23.625
    endloop
  endfacet
  facet normal -0 -0.499953 -0.866052
    outer loop
      vertex 4.76424 131.124 22.6875
      vertex 0 129.5 23.625
      vertex 0 131.124 22.6875
    endloop
  endfacet
  facet normal 0 -0.499953 0.866052
    outer loop
      vertex 0 129.5 19.875
      vertex 4.76424 131.124 20.8125
      vertex 0 131.124 20.8125
    endloop
  endfacet
  facet normal 0 -0.499953 0.866052
    outer loop
      vertex 4.76424 131.124 20.8125
      vertex 0 129.5 19.875
      vertex 4.99007 129.5 19.875
    endloop
  endfacet
  facet normal 0 0.499953 -0.866052
    outer loop
      vertex 0 127.876 22.6875
      vertex 4.99007 129.5 23.625
      vertex 5.21589 127.876 22.6875
    endloop
  endfacet
  facet normal 0 0.499953 -0.866052
    outer loop
      vertex 4.99007 129.5 23.625
      vertex 0 127.876 22.6875
      vertex 0 129.5 23.625
    endloop
  endfacet
  facet normal 0 1 -0
    outer loop
      vertex 5.21589 127.876 20.8125
      vertex 0 127.876 22.6875
      vertex 5.21589 127.876 22.6875
    endloop
  endfacet
  facet normal 0 1 0
    outer loop
      vertex 0 127.876 22.6875
      vertex 5.21589 127.876 20.8125
      vertex 0 127.876 20.8125
    endloop
  endfacet
  facet normal 0 0.499953 0.866052
    outer loop
      vertex 0 127.876 20.8125
      vertex 4.99007 129.5 19.875
      vertex 0 129.5 19.875
    endloop
  endfacet
  facet normal 0 0.499953 0.866052
    outer loop
      vertex 4.99007 129.5 19.875
      vertex 0 127.876 20.8125
      vertex 5.21589 127.876 20.8125
    endloop
  endfacet
  facet normal 0 0 1
    outer loop
      vertex 0 18 43.5
      vertex 21.4801 31.0601 43.5
      vertex 21.4743 32.035 43.5
    endloop
  endfacet
  facet normal 0 0 1
    outer loop
      vertex 21.4801 31.0601 43.5
      vertex 0 18 43.5
      vertex 21.4772 30.1281 43.5
    endloop
  endfacet
  facet normal 0 0 1
    outer loop
      vertex 0 18 43.5
      vertex 21.4743 32.035 43.5
      vertex 21.4597 33.0518 43.5
    endloop
  endfacet
  facet normal 0 0 1
    outer loop
      vertex 21.4772 30.1281 43.5
      vertex 0 18 43.5
      vertex 21.4655 29.2399 43.5
    endloop
  endfacet
  facet normal 0 0 1
    outer loop
      vertex 0 18 43.5
      vertex 21.4597 33.0518 43.5
      vertex 21.4363 34.1095 43.5
    endloop
  endfacet
  facet normal 0 0 1
    outer loop
      vertex 21.4655 29.2399 43.5
      vertex 0 18 43.5
      vertex 21.445 28.3963 43.5
    endloop
  endfacet
  facet normal 0 0 1
    outer loop
      vertex 0 18 43.5
      vertex 21.4363 34.1095 43.5
      vertex 21.4043 35.2071 43.5
    endloop
  endfacet
  facet normal 0 0 1
    outer loop
      vertex 21.445 28.3963 43.5
      vertex 0 18 43.5
      vertex 21.4159 27.5982 43.5
    endloop
  endfacet
  facet normal 0 0 1
    outer loop
      vertex 0 18 43.5
      vertex 21.4043 35.2071 43.5
      vertex 21.3635 36.3434 43.5
    endloop
  endfacet
  facet normal 0 0 1
    outer loop
      vertex 21.4159 27.5982 43.5
      vertex 0 18 43.5
      vertex 21.378 26.8465 43.5
    endloop
  endfacet
  facet normal 0 0 1
    outer loop
      vertex 0 18 43.5
      vertex 21.3635 36.3434 43.5
      vertex 21.3141 37.5174 43.5
    endloop
  endfacet
  facet normal 0 0 1
    outer loop
      vertex 21.378 26.8465 43.5
      vertex 0 18 43.5
      vertex 21.3315 26.1417 43.5
    endloop
  endfacet
  facet normal 0 0 1
    outer loop
      vertex 0 18 43.5
      vertex 21.3141 37.5174 43.5
      vertex 21.2562 38.7279 43.5
    endloop
  endfacet
  facet normal 0 0 1
    outer loop
      vertex 21.3315 26.1417 43.5
      vertex 0 18 43.5
      vertex 21.2764 25.4847 43.5
    endloop
  endfacet
  facet normal 0 0 1
    outer loop
      vertex 0 18 43.5
      vertex 21.2562 38.7279 43.5
      vertex 21.1896 39.9737 43.5
    endloop
  endfacet
  facet normal 0 0 1
    outer loop
      vertex 21.2764 25.4847 43.5
      vertex 0 18 43.5
      vertex 21.2127 24.876 43.5
    endloop
  endfacet
  facet normal 0 0 1
    outer loop
      vertex 0 18 43.5
      vertex 21.1896 39.9737 43.5
      vertex 21.1146 41.2536 43.5
    endloop
  endfacet
  facet normal 0 0 1
    outer loop
      vertex 21.2127 24.876 43.5
      vertex 0 18 43.5
      vertex 21.1405 24.3163 43.5
    endloop
  endfacet
  facet normal 0 0 1
    outer loop
      vertex 0 18 43.5
      vertex 21.1146 41.2536 43.5
      vertex 21.0312 42.5663 43.5
    endloop
  endfacet
  facet normal 0 0 1
    outer loop
      vertex 21.1405 24.3163 43.5
      vertex 0 18 43.5
      vertex 21.0598 23.8062 43.5
    endloop
  endfacet
  facet normal 0 -0 1
    outer loop
      vertex 20.9652 23.3223 43.5
      vertex 21.0598 23.8062 43.5
      vertex 0 18 43.5
    endloop
  endfacet
  facet normal 0 0 1
    outer loop
      vertex 0 18 43.5
      vertex 21.0312 42.5663 43.5
      vertex 20.9395 43.9105 43.5
    endloop
  endfacet
  facet normal 0 0 1
    outer loop
      vertex 0 18 43.5
      vertex 20.9395 43.9105 43.5
      vertex 20.8396 45.2848 43.5
    endloop
  endfacet
  facet normal 0 0 1
    outer loop
      vertex 0 18 43.5
      vertex 20.8396 45.2848 43.5
      vertex 20.7315 46.6881 43.5
    endloop
  endfacet
  facet normal 0 0 1
    outer loop
      vertex 0 18 43.5
      vertex 20.7315 46.6881 43.5
      vertex 20.6154 48.1187 43.5
    endloop
  endfacet
  facet normal 0 0 1
    outer loop
      vertex 0 18 43.5
      vertex 20.6154 48.1187 43.5
      vertex 20.4914 49.5754 43.5
    endloop
  endfacet
  facet normal 0 0 1
    outer loop
      vertex 0 18 43.5
      vertex 20.4914 49.5754 43.5
      vertex 20.3596 51.0567 43.5
    endloop
  endfacet
  facet normal 0 0 1
    outer loop
      vertex 21.0598 23.8062 43.5
      vertex 20.9652 23.3223 43.5
      vertex 20.9709 23.3461 43.5
    endloop
  endfacet
  facet normal 0 0 1
    outer loop
      vertex 0 18 43.5
      vertex 20.3596 51.0567 43.5
      vertex 20.2201 52.5611 43.5
    endloop
  endfacet
  facet normal 0 0 1
    outer loop
      vertex 0 18 43.5
      vertex 20.2201 52.5611 43.5
      vertex 20.0731 54.0872 43.5
    endloop
  endfacet
  facet normal 0 0 1
    outer loop
      vertex 0 18 43.5
      vertex 20.0731 54.0872 43.5
      vertex 19.9188 55.6335 43.5
    endloop
  endfacet
  facet normal 0 0 1
    outer loop
      vertex 0 18 43.5
      vertex 19.9188 55.6335 43.5
      vertex 19.7572 57.1983 43.5
    endloop
  endfacet
  facet normal 0 0 1
    outer loop
      vertex 0 18 43.5
      vertex 19.7572 57.1983 43.5
      vertex 19.5886 58.7802 43.5
    endloop
  endfacet
  facet normal 0 0 1
    outer loop
      vertex 0 18 43.5
      vertex 19.5886 58.7802 43.5
      vertex 19.413 60.3777 43.5
    endloop
  endfacet
  facet normal 0 0 1
    outer loop
      vertex 0 18 43.5
      vertex 19.413 60.3777 43.5
      vertex 19.2308 61.989 43.5
    endloop
  endfacet
  facet normal 0 0 1
    outer loop
      vertex 0 18 43.5
      vertex 19.2308 61.989 43.5
      vertex 19.042 63.6127 43.5
    endloop
  endfacet
  facet normal 0 0 1
    outer loop
      vertex 0 18 43.5
      vertex 19.042 63.6127 43.5
      vertex 18.8468 65.2472 43.5
    endloop
  endfacet
  facet normal 0 0 1
    outer loop
      vertex 0 18 43.5
      vertex 18.8468 65.2472 43.5
      vertex 18.6455 66.8908 43.5
    endloop
  endfacet
  facet normal 0 0 1
    outer loop
      vertex 0 18 43.5
      vertex 18.6455 66.8908 43.5
      vertex 18.4382 68.5419 43.5
    endloop
  endfacet
  facet normal 0 0 1
    outer loop
      vertex 0 18 43.5
      vertex 18.4382 68.5419 43.5
      vertex 18.2252 70.1989 43.5
    endloop
  endfacet
  facet normal 0 0 1
    outer loop
      vertex 0 18 43.5
      vertex 18.2252 70.1989 43.5
      vertex 18.0066 71.8601 43.5
    endloop
  endfacet
  facet normal 0 0 1
    outer loop
      vertex 0 18 43.5
      vertex 18.0066 71.8601 43.5
      vertex 17.7827 73.5239 43.5
    endloop
  endfacet
  facet normal 0 0 1
    outer loop
      vertex 0 18 43.5
      vertex 17.7827 73.5239 43.5
      vertex 17.5537 75.1887 43.5
    endloop
  endfacet
  facet normal 0 0 1
    outer loop
      vertex 0 18 43.5
      vertex 17.5537 75.1887 43.5
      vertex 17.3197 76.8528 43.5
    endloop
  endfacet
  facet normal 0 0 1
    outer loop
      vertex 0 18 43.5
      vertex 17.3197 76.8528 43.5
      vertex 17.0812 78.5146 43.5
    endloop
  endfacet
  facet normal 0 0 1
    outer loop
      vertex 0 18 43.5
      vertex 17.0812 78.5146 43.5
      vertex 16.8381 80.1725 43.5
    endloop
  endfacet
  facet normal 0 0 1
    outer loop
      vertex 0 18 43.5
      vertex 16.8381 80.1725 43.5
      vertex 16.591 81.8247 43.5
    endloop
  endfacet
  facet normal 0 0 1
    outer loop
      vertex 0 18 43.5
      vertex 16.591 81.8247 43.5
      vertex 16.3398 83.4697 43.5
    endloop
  endfacet
  facet normal 0 0 1
    outer loop
      vertex 0 18 43.5
      vertex 16.3398 83.4697 43.5
      vertex 16.085 85.1059 43.5
    endloop
  endfacet
  facet normal 0 0 1
    outer loop
      vertex 0 18 43.5
      vertex 16.085 85.1059 43.5
      vertex 15.8268 86.7316 43.5
    endloop
  endfacet
  facet normal 0 0 1
    outer loop
      vertex 0 18 43.5
      vertex 15.8268 86.7316 43.5
      vertex 15.5654 88.3452 43.5
    endloop
  endfacet
  facet normal 0 0 1
    outer loop
      vertex 0 18 43.5
      vertex 15.5654 88.3452 43.5
      vertex 15.301 89.9451 43.5
    endloop
  endfacet
  facet normal 0 0 1
    outer loop
      vertex 0 18 43.5
      vertex 15.301 89.9451 43.5
      vertex 15.034 91.5298 43.5
    endloop
  endfacet
  facet normal 0 0 1
    outer loop
      vertex 0 18 43.5
      vertex 15.034 91.5298 43.5
      vertex 14.7646 93.0977 43.5
    endloop
  endfacet
  facet normal 0 0 1
    outer loop
      vertex 0 18 43.5
      vertex 14.7646 93.0977 43.5
      vertex 14.493 94.6473 43.5
    endloop
  endfacet
  facet normal 0 0 1
    outer loop
      vertex 0 18 43.5
      vertex 14.493 94.6473 43.5
      vertex 14.2196 96.1769 43.5
    endloop
  endfacet
  facet normal 0 0 1
    outer loop
      vertex 0 133 43.5
      vertex 14.2196 96.1769 43.5
      vertex 13.9446 97.6852 43.5
    endloop
  endfacet
  facet normal 0 0 1
    outer loop
      vertex 0 133 43.5
      vertex 13.9446 97.6852 43.5
      vertex 13.6682 99.1706 43.5
    endloop
  endfacet
  facet normal 0 0 1
    outer loop
      vertex 0 133 43.5
      vertex 13.6682 99.1706 43.5
      vertex 13.3908 100.632 43.5
    endloop
  endfacet
  facet normal 0 0 1
    outer loop
      vertex 0 133 43.5
      vertex 13.3908 100.632 43.5
      vertex 13.1126 102.067 43.5
    endloop
  endfacet
  facet normal 0 0 1
    outer loop
      vertex 0 133 43.5
      vertex 13.1126 102.067 43.5
      vertex 12.834 103.475 43.5
    endloop
  endfacet
  facet normal 0 0 1
    outer loop
      vertex 0 133 43.5
      vertex 12.834 103.475 43.5
      vertex 12.555 104.854 43.5
    endloop
  endfacet
  facet normal 0 0 1
    outer loop
      vertex 0 133 43.5
      vertex 12.555 104.854 43.5
      vertex 12.2762 106.204 43.5
    endloop
  endfacet
  facet normal 0 0 1
    outer loop
      vertex 0 133 43.5
      vertex 12.2762 106.204 43.5
      vertex 11.9976 107.522 43.5
    endloop
  endfacet
  facet normal 0 0 1
    outer loop
      vertex 0 133 43.5
      vertex 11.9976 107.522 43.5
      vertex 11.7197 108.808 43.5
    endloop
  endfacet
  facet normal 0 0 1
    outer loop
      vertex 0 133 43.5
      vertex 11.7197 108.808 43.5
      vertex 11.4426 110.06 43.5
    endloop
  endfacet
  facet normal 0 0 1
    outer loop
      vertex 0 133 43.5
      vertex 11.4426 110.06 43.5
      vertex 11.1667 111.276 43.5
    endloop
  endfacet
  facet normal 0 0 1
    outer loop
      vertex 0 133 43.5
      vertex 11.1667 111.276 43.5
      vertex 10.8921 112.457 43.5
    endloop
  endfacet
  facet normal 0 0 1
    outer loop
      vertex 0 133 43.5
      vertex 10.8921 112.457 43.5
      vertex 10.6193 113.6 43.5
    endloop
  endfacet
  facet normal 0 0 1
    outer loop
      vertex 0 133 43.5
      vertex 10.6193 113.6 43.5
      vertex 10.3484 114.704 43.5
    endloop
  endfacet
  facet normal 0 0 1
    outer loop
      vertex 0 133 43.5
      vertex 10.3484 114.704 43.5
      vertex 10.0798 115.769 43.5
    endloop
  endfacet
  facet normal 0 0 1
    outer loop
      vertex 0 133 43.5
      vertex 10.0798 115.769 43.5
      vertex 9.81362 116.792 43.5
    endloop
  endfacet
  facet normal 0 0 1
    outer loop
      vertex 0 133 43.5
      vertex 9.81362 116.792 43.5
      vertex 9.5502 117.775 43.5
    endloop
  endfacet
  facet normal 0 0 1
    outer loop
      vertex 0 133 43.5
      vertex 9.5502 117.775 43.5
      vertex 9.2898 118.714 43.5
    endloop
  endfacet
  facet normal 0 0 1
    outer loop
      vertex 0 133 43.5
      vertex 9.2898 118.714 43.5
      vertex 9.03266 119.61 43.5
    endloop
  endfacet
  facet normal 0 0 1
    outer loop
      vertex 0 133 43.5
      vertex 9.03266 119.61 43.5
      vertex 8.77905 120.461 43.5
    endloop
  endfacet
  facet normal 0 0 1
    outer loop
      vertex 5.26975 127.489 43.5
      vertex 8.77905 120.461 43.5
      vertex 8.52921 121.267 43.5
    endloop
  endfacet
  facet normal 0 0 1
    outer loop
      vertex 5.26975 127.489 43.5
      vertex 8.52921 121.267 43.5
      vertex 8.28338 122.027 43.5
    endloop
  endfacet
  facet normal 0 0 1
    outer loop
      vertex 5.26975 127.489 43.5
      vertex 8.28338 122.027 43.5
      vertex 8.04183 122.74 43.5
    endloop
  endfacet
  facet normal 0 0 1
    outer loop
      vertex 5.26975 127.489 43.5
      vertex 8.04183 122.74 43.5
      vertex 7.80476 123.405 43.5
    endloop
  endfacet
  facet normal 0 0 1
    outer loop
      vertex 5.26975 127.489 43.5
      vertex 7.80476 123.405 43.5
      vertex 7.57244 124.022 43.5
    endloop
  endfacet
  facet normal 0 0 1
    outer loop
      vertex 5.26975 127.489 43.5
      vertex 7.57244 124.022 43.5
      vertex 7.34507 124.591 43.5
    endloop
  endfacet
  facet normal 0 0 1
    outer loop
      vertex 5.26975 127.489 43.5
      vertex 7.34507 124.591 43.5
      vertex 7.12289 125.109 43.5
    endloop
  endfacet
  facet normal 0 0 1
    outer loop
      vertex 5.26975 127.489 43.5
      vertex 7.12289 125.109 43.5
      vertex 6.90612 125.578 43.5
    endloop
  endfacet
  facet normal 0 0 1
    outer loop
      vertex 5.26975 127.489 43.5
      vertex 6.90612 125.578 43.5
      vertex 6.69496 125.997 43.5
    endloop
  endfacet
  facet normal 0 0 1
    outer loop
      vertex 5.26975 127.489 43.5
      vertex 6.69496 125.997 43.5
      vertex 6.48965 126.364 43.5
    endloop
  endfacet
  facet normal 0 0 1
    outer loop
      vertex 5.26975 127.489 43.5
      vertex 6.48965 126.364 43.5
      vertex 6.29036 126.68 43.5
    endloop
  endfacet
  facet normal 0 0 1
    outer loop
      vertex 5.26975 127.489 43.5
      vertex 6.29036 126.68 43.5
      vertex 6.09729 126.945 43.5
    endloop
  endfacet
  facet normal 0 0 1
    outer loop
      vertex 5.26975 127.489 43.5
      vertex 6.09729 126.945 43.5
      vertex 5.91066 127.158 43.5
    endloop
  endfacet
  facet normal 0 0 1
    outer loop
      vertex 5.26975 127.489 43.5
      vertex 5.91066 127.158 43.5
      vertex 5.73061 127.32 43.5
    endloop
  endfacet
  facet normal 0 0 1
    outer loop
      vertex 5.26975 127.489 43.5
      vertex 5.73061 127.32 43.5
      vertex 5.55735 127.429 43.5
    endloop
  endfacet
  facet normal 0 0 1
    outer loop
      vertex 5.26975 127.489 43.5
      vertex 5.55735 127.429 43.5
      vertex 5.39104 127.485 43.5
    endloop
  endfacet
  facet normal 0 0 1
    outer loop
      vertex 8.77905 120.461 43.5
      vertex 5.26975 127.489 43.5
      vertex 0 133 43.5
    endloop
  endfacet
  facet normal 0 0 1
    outer loop
      vertex 20.9652 23.3223 43.5
      vertex 0 18 43.5
      vertex 20.2681 19.6439 43.5
    endloop
  endfacet
  facet normal -0 0 1
    outer loop
      vertex 0 133 43.5
      vertex 5.26975 127.489 43.5
      vertex 4.50331 133 43.5
    endloop
  endfacet
  facet normal 0 0 1
    outer loop
      vertex 14.2196 96.1769 43.5
      vertex 0 133 43.5
      vertex 0 18 43.5
    endloop
  endfacet
  facet normal 0 0 1
    outer loop
      vertex 20.2681 19.6439 43.5
      vertex 0 18 43.5
      vertex 20.4967 18 43.5
    endloop
  endfacet
  facet normal -0 0 -1
    outer loop
      vertex 20.3596 51.0567 0
      vertex 0 18 0
      vertex 20.2201 52.5611 0
    endloop
  endfacet
  facet normal -0 0 -1
    outer loop
      vertex 20.2201 52.5611 0
      vertex 0 18 0
      vertex 20.0731 54.0872 0
    endloop
  endfacet
  facet normal -0 0 -1
    outer loop
      vertex 20.0731 54.0872 0
      vertex 0 18 0
      vertex 19.9188 55.6335 0
    endloop
  endfacet
  facet normal -0 0 -1
    outer loop
      vertex 19.9188 55.6335 0
      vertex 0 18 0
      vertex 19.7572 57.1983 0
    endloop
  endfacet
  facet normal -0 0 -1
    outer loop
      vertex 19.7572 57.1983 0
      vertex 0 18 0
      vertex 19.5886 58.7802 0
    endloop
  endfacet
  facet normal -0 0 -1
    outer loop
      vertex 19.5886 58.7802 0
      vertex 0 18 0
      vertex 19.413 60.3777 0
    endloop
  endfacet
  facet normal -0 0 -1
    outer loop
      vertex 19.413 60.3777 0
      vertex 0 18 0
      vertex 19.2308 61.989 0
    endloop
  endfacet
  facet normal -0 0 -1
    outer loop
      vertex 19.2308 61.989 0
      vertex 0 18 0
      vertex 19.042 63.6127 0
    endloop
  endfacet
  facet normal -0 0 -1
    outer loop
      vertex 19.042 63.6127 0
      vertex 0 18 0
      vertex 18.8468 65.2472 0
    endloop
  endfacet
  facet normal -0 0 -1
    outer loop
      vertex 18.8468 65.2472 0
      vertex 0 18 0
      vertex 18.6455 66.8908 0
    endloop
  endfacet
  facet normal -0 0 -1
    outer loop
      vertex 18.6455 66.8908 0
      vertex 0 18 0
      vertex 18.4382 68.5419 0
    endloop
  endfacet
  facet normal -0 0 -1
    outer loop
      vertex 18.4382 68.5419 0
      vertex 0 18 0
      vertex 18.2252 70.1989 0
    endloop
  endfacet
  facet normal -0 0 -1
    outer loop
      vertex 18.2252 70.1989 0
      vertex 0 18 0
      vertex 18.0066 71.8601 0
    endloop
  endfacet
  facet normal -0 0 -1
    outer loop
      vertex 18.0066 71.8601 0
      vertex 0 18 0
      vertex 17.7827 73.5239 0
    endloop
  endfacet
  facet normal -0 0 -1
    outer loop
      vertex 17.7827 73.5239 0
      vertex 0 18 0
      vertex 17.5537 75.1887 0
    endloop
  endfacet
  facet normal -0 0 -1
    outer loop
      vertex 17.5537 75.1887 0
      vertex 0 18 0
      vertex 17.3197 76.8528 0
    endloop
  endfacet
  facet normal -0 0 -1
    outer loop
      vertex 17.3197 76.8528 0
      vertex 0 18 0
      vertex 17.0812 78.5146 0
    endloop
  endfacet
  facet normal -0 0 -1
    outer loop
      vertex 17.0812 78.5146 0
      vertex 0 18 0
      vertex 16.8381 80.1725 0
    endloop
  endfacet
  facet normal -0 0 -1
    outer loop
      vertex 16.8381 80.1725 0
      vertex 0 18 0
      vertex 16.591 81.8247 0
    endloop
  endfacet
  facet normal -0 0 -1
    outer loop
      vertex 16.591 81.8247 0
      vertex 0 18 0
      vertex 16.3398 83.4697 0
    endloop
  endfacet
  facet normal -0 0 -1
    outer loop
      vertex 16.3398 83.4697 0
      vertex 0 18 0
      vertex 16.085 85.1059 0
    endloop
  endfacet
  facet normal -0 0 -1
    outer loop
      vertex 16.085 85.1059 0
      vertex 0 18 0
      vertex 15.8268 86.7316 0
    endloop
  endfacet
  facet normal -0 0 -1
    outer loop
      vertex 15.8268 86.7316 0
      vertex 0 18 0
      vertex 15.5654 88.3452 0
    endloop
  endfacet
  facet normal -0 0 -1
    outer loop
      vertex 15.5654 88.3452 0
      vertex 0 18 0
      vertex 15.301 89.9451 0
    endloop
  endfacet
  facet normal -0 0 -1
    outer loop
      vertex 15.301 89.9451 0
      vertex 0 18 0
      vertex 15.034 91.5298 0
    endloop
  endfacet
  facet normal -0 0 -1
    outer loop
      vertex 15.034 91.5298 0
      vertex 0 18 0
      vertex 14.7646 93.0977 0
    endloop
  endfacet
  facet normal -0 0 -1
    outer loop
      vertex 14.7646 93.0977 0
      vertex 0 18 0
      vertex 14.493 94.6473 0
    endloop
  endfacet
  facet normal -0 0 -1
    outer loop
      vertex 14.493 94.6473 0
      vertex 0 18 0
      vertex 14.2196 96.1769 0
    endloop
  endfacet
  facet normal 0 0 -1
    outer loop
      vertex 0 133 0
      vertex 14.2196 96.1769 0
      vertex 0 18 0
    endloop
  endfacet
  facet normal 0 0 -1
    outer loop
      vertex 14.2196 96.1769 0
      vertex 0 133 0
      vertex 13.9446 97.6852 0
    endloop
  endfacet
  facet normal 0 0 -1
    outer loop
      vertex 13.9446 97.6852 0
      vertex 0 133 0
      vertex 13.6682 99.1706 0
    endloop
  endfacet
  facet normal 0 0 -1
    outer loop
      vertex 13.6682 99.1706 0
      vertex 0 133 0
      vertex 13.3908 100.632 0
    endloop
  endfacet
  facet normal 0 0 -1
    outer loop
      vertex 13.3908 100.632 0
      vertex 0 133 0
      vertex 13.1126 102.067 0
    endloop
  endfacet
  facet normal 0 0 -1
    outer loop
      vertex 13.1126 102.067 0
      vertex 0 133 0
      vertex 12.834 103.475 0
    endloop
  endfacet
  facet normal 0 0 -1
    outer loop
      vertex 12.834 103.475 0
      vertex 0 133 0
      vertex 12.555 104.854 0
    endloop
  endfacet
  facet normal 0 0 -1
    outer loop
      vertex 12.555 104.854 0
      vertex 0 133 0
      vertex 12.2762 106.204 0
    endloop
  endfacet
  facet normal 0 0 -1
    outer loop
      vertex 12.2762 106.204 0
      vertex 0 133 0
      vertex 11.9976 107.522 0
    endloop
  endfacet
  facet normal 0 0 -1
    outer loop
      vertex 11.9976 107.522 0
      vertex 0 133 0
      vertex 11.7197 108.808 0
    endloop
  endfacet
  facet normal 0 0 -1
    outer loop
      vertex 11.7197 108.808 0
      vertex 0 133 0
      vertex 11.4426 110.06 0
    endloop
  endfacet
  facet normal 0 0 -1
    outer loop
      vertex 11.4426 110.06 0
      vertex 0 133 0
      vertex 11.1667 111.276 0
    endloop
  endfacet
  facet normal 0 0 -1
    outer loop
      vertex 11.1667 111.276 0
      vertex 0 133 0
      vertex 10.8921 112.457 0
    endloop
  endfacet
  facet normal 0 0 -1
    outer loop
      vertex 10.8921 112.457 0
      vertex 0 133 0
      vertex 10.6193 113.6 0
    endloop
  endfacet
  facet normal 0 0 -1
    outer loop
      vertex 10.6193 113.6 0
      vertex 0 133 0
      vertex 10.3484 114.704 0
    endloop
  endfacet
  facet normal 0 0 -1
    outer loop
      vertex 10.3484 114.704 0
      vertex 0 133 0
      vertex 10.0798 115.769 0
    endloop
  endfacet
  facet normal 0 0 -1
    outer loop
      vertex 10.0798 115.769 0
      vertex 0 133 0
      vertex 9.81362 116.792 0
    endloop
  endfacet
  facet normal 0 0 -1
    outer loop
      vertex 9.81362 116.792 0
      vertex 0 133 0
      vertex 9.5502 117.775 0
    endloop
  endfacet
  facet normal 0 0 -1
    outer loop
      vertex 9.5502 117.775 0
      vertex 0 133 0
      vertex 9.2898 118.714 0
    endloop
  endfacet
  facet normal 0 0 -1
    outer loop
      vertex 9.2898 118.714 0
      vertex 0 133 0
      vertex 9.03266 119.61 0
    endloop
  endfacet
  facet normal 0 0 -1
    outer loop
      vertex 9.03266 119.61 0
      vertex 0 133 0
      vertex 8.77905 120.461 0
    endloop
  endfacet
  facet normal -0 -0 -1
    outer loop
      vertex 5.26975 127.489 0
      vertex 8.77905 120.461 0
      vertex 0 133 0
    endloop
  endfacet
  facet normal 0 0 -1
    outer loop
      vertex 8.77905 120.461 0
      vertex 5.26975 127.489 0
      vertex 8.52921 121.267 0
    endloop
  endfacet
  facet normal 0 0 -1
    outer loop
      vertex 8.52921 121.267 0
      vertex 5.26975 127.489 0
      vertex 8.28338 122.027 0
    endloop
  endfacet
  facet normal 0 0 -1
    outer loop
      vertex 8.28338 122.027 0
      vertex 5.26975 127.489 0
      vertex 8.04183 122.74 0
    endloop
  endfacet
  facet normal 0 0 -1
    outer loop
      vertex 8.04183 122.74 0
      vertex 5.26975 127.489 0
      vertex 7.80476 123.405 0
    endloop
  endfacet
  facet normal 0 0 -1
    outer loop
      vertex 7.80476 123.405 0
      vertex 5.26975 127.489 0
      vertex 7.57244 124.022 0
    endloop
  endfacet
  facet normal 0 0 -1
    outer loop
      vertex 7.57244 124.022 0
      vertex 5.26975 127.489 0
      vertex 7.34507 124.591 0
    endloop
  endfacet
  facet normal 0 0 -1
    outer loop
      vertex 7.12289 125.109 0
      vertex 5.26975 127.489 0
      vertex 6.90612 125.578 0
    endloop
  endfacet
  facet normal 0 0 -1
    outer loop
      vertex 6.90612 125.578 0
      vertex 5.26975 127.489 0
      vertex 6.69496 125.997 0
    endloop
  endfacet
  facet normal 0 0 -1
    outer loop
      vertex 6.69496 125.997 0
      vertex 5.26975 127.489 0
      vertex 6.48965 126.364 0
    endloop
  endfacet
  facet normal 0 0 -1
    outer loop
      vertex 6.48965 126.364 0
      vertex 5.26975 127.489 0
      vertex 6.29036 126.68 0
    endloop
  endfacet
  facet normal 0 0 -1
    outer loop
      vertex 6.29036 126.68 0
      vertex 5.26975 127.489 0
      vertex 6.09729 126.945 0
    endloop
  endfacet
  facet normal 0 0 -1
    outer loop
      vertex 6.09729 126.945 0
      vertex 5.26975 127.489 0
      vertex 5.91066 127.158 0
    endloop
  endfacet
  facet normal 0 0 -1
    outer loop
      vertex 5.91066 127.158 0
      vertex 5.26975 127.489 0
      vertex 5.73061 127.32 0
    endloop
  endfacet
  facet normal 0 0 -1
    outer loop
      vertex 5.73061 127.32 0
      vertex 5.26975 127.489 0
      vertex 5.55735 127.429 0
    endloop
  endfacet
  facet normal 0 0 -1
    outer loop
      vertex 0 18 0
      vertex 20.2681 19.6439 0
      vertex 20.4967 18 0
    endloop
  endfacet
  facet normal 0 0 -1
    outer loop
      vertex 5.55735 127.429 0
      vertex 5.26975 127.489 0
      vertex 5.39104 127.485 0
    endloop
  endfacet
  facet normal 0 0 -1
    outer loop
      vertex 7.34507 124.591 0
      vertex 5.26975 127.489 0
      vertex 7.12289 125.109 0
    endloop
  endfacet
  facet normal 0 0 -1
    outer loop
      vertex 5.26975 127.489 0
      vertex 0 133 0
      vertex 4.50331 133 0
    endloop
  endfacet
  facet normal 0 0 -1
    outer loop
      vertex 0 18 0
      vertex 21.4801 31.0601 0
      vertex 21.4772 30.1281 0
    endloop
  endfacet
  facet normal -0 0 -1
    outer loop
      vertex 21.445 28.3963 0
      vertex 0 18 0
      vertex 21.4655 29.2399 0
    endloop
  endfacet
  facet normal -0 0 -1
    outer loop
      vertex 21.4655 29.2399 0
      vertex 0 18 0
      vertex 21.4772 30.1281 0
    endloop
  endfacet
  facet normal -0 0 -1
    outer loop
      vertex 21.4159 27.5982 0
      vertex 0 18 0
      vertex 21.445 28.3963 0
    endloop
  endfacet
  facet normal -0 0 -1
    outer loop
      vertex 21.4801 31.0601 0
      vertex 0 18 0
      vertex 21.4743 32.035 0
    endloop
  endfacet
  facet normal -0 0 -1
    outer loop
      vertex 21.378 26.8465 0
      vertex 0 18 0
      vertex 21.4159 27.5982 0
    endloop
  endfacet
  facet normal 0 0 -1
    outer loop
      vertex 0 18 0
      vertex 20.9652 23.3223 0
      vertex 20.2681 19.6439 0
    endloop
  endfacet
  facet normal -0 0 -1
    outer loop
      vertex 21.3315 26.1417 0
      vertex 0 18 0
      vertex 21.378 26.8465 0
    endloop
  endfacet
  facet normal -0 0 -1
    outer loop
      vertex 21.4743 32.035 0
      vertex 0 18 0
      vertex 21.4597 33.0518 0
    endloop
  endfacet
  facet normal -0 0 -1
    outer loop
      vertex 21.2764 25.4847 0
      vertex 0 18 0
      vertex 21.3315 26.1417 0
    endloop
  endfacet
  facet normal -0 0 -1
    outer loop
      vertex 21.4597 33.0518 0
      vertex 0 18 0
      vertex 21.4363 34.1095 0
    endloop
  endfacet
  facet normal -0 0 -1
    outer loop
      vertex 21.2127 24.876 0
      vertex 0 18 0
      vertex 21.2764 25.4847 0
    endloop
  endfacet
  facet normal -0 0 -1
    outer loop
      vertex 21.4363 34.1095 0
      vertex 0 18 0
      vertex 21.4043 35.2071 0
    endloop
  endfacet
  facet normal -0 0 -1
    outer loop
      vertex 21.1405 24.3163 0
      vertex 0 18 0
      vertex 21.2127 24.876 0
    endloop
  endfacet
  facet normal -0 0 -1
    outer loop
      vertex 21.4043 35.2071 0
      vertex 0 18 0
      vertex 21.3635 36.3434 0
    endloop
  endfacet
  facet normal 0 0 -1
    outer loop
      vertex 0 18 0
      vertex 21.1405 24.3163 0
      vertex 20.9652 23.3223 0
    endloop
  endfacet
  facet normal -0 0 -1
    outer loop
      vertex 21.3635 36.3434 0
      vertex 0 18 0
      vertex 21.3141 37.5174 0
    endloop
  endfacet
  facet normal 0 0 -1
    outer loop
      vertex 20.9652 23.3223 0
      vertex 21.1405 24.3163 0
      vertex 21.0598 23.8062 0
    endloop
  endfacet
  facet normal -0 0 -1
    outer loop
      vertex 21.3141 37.5174 0
      vertex 0 18 0
      vertex 21.2562 38.7279 0
    endloop
  endfacet
  facet normal 0 0 -1
    outer loop
      vertex 20.9652 23.3223 0
      vertex 21.0598 23.8062 0
      vertex 20.9709 23.3461 0
    endloop
  endfacet
  facet normal -0 0 -1
    outer loop
      vertex 21.2562 38.7279 0
      vertex 0 18 0
      vertex 21.1896 39.9737 0
    endloop
  endfacet
  facet normal -0 0 -1
    outer loop
      vertex 21.1896 39.9737 0
      vertex 0 18 0
      vertex 21.1146 41.2536 0
    endloop
  endfacet
  facet normal -0 0 -1
    outer loop
      vertex 21.1146 41.2536 0
      vertex 0 18 0
      vertex 21.0312 42.5663 0
    endloop
  endfacet
  facet normal -0 0 -1
    outer loop
      vertex 21.0312 42.5663 0
      vertex 0 18 0
      vertex 20.9395 43.9105 0
    endloop
  endfacet
  facet normal -0 0 -1
    outer loop
      vertex 20.9395 43.9105 0
      vertex 0 18 0
      vertex 20.8396 45.2848 0
    endloop
  endfacet
  facet normal -0 0 -1
    outer loop
      vertex 20.8396 45.2848 0
      vertex 0 18 0
      vertex 20.7315 46.6881 0
    endloop
  endfacet
  facet normal -0 0 -1
    outer loop
      vertex 20.7315 46.6881 0
      vertex 0 18 0
      vertex 20.6154 48.1187 0
    endloop
  endfacet
  facet normal -0 0 -1
    outer loop
      vertex 20.6154 48.1187 0
      vertex 0 18 0
      vertex 20.4914 49.5754 0
    endloop
  endfacet
  facet normal -0 0 -1
    outer loop
      vertex 20.4914 49.5754 0
      vertex 0 18 0
      vertex 20.3596 51.0567 0
    endloop
  endfacet
  facet normal -1 0 0
    outer loop
      vertex 0 131.124 20.8125
      vertex 0 150.901 19.4765
      vertex 0 150.119 15.0289
    endloop
  endfacet
  facet normal -1 0 0
    outer loop
      vertex 0 150.901 19.4765
      vertex 0 131.124 20.8125
      vertex 0 150.901 24.0235
    endloop
  endfacet
  facet normal -1 0 0
    outer loop
      vertex 0 131.124 20.8125
      vertex 0 150.119 15.0289
      vertex 0 148.588 10.875
    endloop
  endfacet
  facet normal -1 0 0
    outer loop
      vertex 0 131.124 22.6875
      vertex 0 150.901 24.0235
      vertex 0 131.124 20.8125
    endloop
  endfacet
  facet normal -1 0 0
    outer loop
      vertex 0 131.124 20.8125
      vertex 0 148.588 10.875
      vertex 0 146.377 7.19641
    endloop
  endfacet
  facet normal -1 -0 0
    outer loop
      vertex 0 150.901 24.0235
      vertex 0 131.124 22.6875
      vertex 0 150.119 28.4711
    endloop
  endfacet
  facet normal -1 0 0
    outer loop
      vertex 0 131.124 20.8125
      vertex 0 146.377 7.19641
      vertex 0 143.58 4.15388
    endloop
  endfacet
  facet normal -1 -0 0
    outer loop
      vertex 0 150.119 28.4711
      vertex 0 131.124 22.6875
      vertex 0 148.588 32.625
    endloop
  endfacet
  facet normal -1 0 0
    outer loop
      vertex 0 131.124 20.8125
      vertex 0 143.58 4.15388
      vertex 0 140.321 1.88039
    endloop
  endfacet
  facet normal -1 -0 0
    outer loop
      vertex 0 148.588 32.625
      vertex 0 131.124 22.6875
      vertex 0 146.377 36.3036
    endloop
  endfacet
  facet normal -1 0 0
    outer loop
      vertex 0 129.5 19.875
      vertex 0 140.321 1.88039
      vertex 0 136.742 0.475289
    endloop
  endfacet
  facet normal -1 -0 0
    outer loop
      vertex 0 146.377 36.3036
      vertex 0 131.124 22.6875
      vertex 0 143.58 39.3461
    endloop
  endfacet
  facet normal -1 0 0
    outer loop
      vertex 0 129.5 19.875
      vertex 0 136.742 0.475289
      vertex 0 133 0
    endloop
  endfacet
  facet normal -1 -0 0
    outer loop
      vertex 0 143.58 39.3461
      vertex 0 131.124 22.6875
      vertex 0 140.321 41.6196
    endloop
  endfacet
  facet normal -1 0 0
    outer loop
      vertex 0 129.5 23.625
      vertex 0 140.321 41.6196
      vertex 0 131.124 22.6875
    endloop
  endfacet
  facet normal -1 0 0
    outer loop
      vertex 0 140.321 1.88039
      vertex 0 129.5 19.875
      vertex 0 131.124 20.8125
    endloop
  endfacet
  facet normal -1 0 0
    outer loop
      vertex 0 133 0
      vertex 0 127.876 20.8125
      vertex 0 129.5 19.875
    endloop
  endfacet
  facet normal -1 0 0
    outer loop
      vertex 0 127.876 20.8125
      vertex 0 18.1238 20.8125
      vertex 0 127.876 22.6875
    endloop
  endfacet
  facet normal -1 0 0
    outer loop
      vertex 0 18 0
      vertex 0 127.876 20.8125
      vertex 0 133 0
    endloop
  endfacet
  facet normal -1 -0 0
    outer loop
      vertex 0 127.876 20.8125
      vertex 0 18 0
      vertex 0 18.1238 20.8125
    endloop
  endfacet
  facet normal -1 0 0
    outer loop
      vertex 0 18 0
      vertex 0 16.5 19.875
      vertex 0 18.1238 20.8125
    endloop
  endfacet
  facet normal -1 0 0
    outer loop
      vertex 0 14.2576 0.475289
      vertex 0 16.5 19.875
      vertex 0 18 0
    endloop
  endfacet
  facet normal -1 0 0
    outer loop
      vertex 0 7.41986 4.15388
      vertex 0 16.5 19.875
      vertex 0 10.6787 1.88039
    endloop
  endfacet
  facet normal -1 0 0
    outer loop
      vertex 0 10.6787 1.88039
      vertex 0 16.5 19.875
      vertex 0 14.2576 0.475289
    endloop
  endfacet
  facet normal -1 -0 0
    outer loop
      vertex 0 140.321 41.6196
      vertex 0 129.5 23.625
      vertex 0 136.742 43.0247
    endloop
  endfacet
  facet normal -1 -0 0
    outer loop
      vertex 0 136.742 43.0247
      vertex 0 129.5 23.625
      vertex 0 133 43.5
    endloop
  endfacet
  facet normal -1 0 0
    outer loop
      vertex 0 127.876 22.6875
      vertex 0 133 43.5
      vertex 0 129.5 23.625
    endloop
  endfacet
  facet normal -1 0 0
    outer loop
      vertex 0 18.1238 22.6875
      vertex 0 127.876 22.6875
      vertex 0 18.1238 20.8125
    endloop
  endfacet
  facet normal -1 0 0
    outer loop
      vertex 0 18 43.5
      vertex 0 127.876 22.6875
      vertex 0 18.1238 22.6875
    endloop
  endfacet
  facet normal -1 0 0
    outer loop
      vertex 0 127.876 22.6875
      vertex 0 18 43.5
      vertex 0 133 43.5
    endloop
  endfacet
  facet normal -1 0 0
    outer loop
      vertex 0 16.5 23.625
      vertex 0 18 43.5
      vertex 0 18.1238 22.6875
    endloop
  endfacet
  facet normal -1 0 0
    outer loop
      vertex 0 4.62339 36.3036
      vertex 0 16.5 23.625
      vertex 0 14.8762 22.6875
    endloop
  endfacet
  facet normal -1 0 0
    outer loop
      vertex 0 16.5 23.625
      vertex 0 14.2576 43.0247
      vertex 0 18 43.5
    endloop
  endfacet
  facet normal -1 0 0
    outer loop
      vertex 0 4.62339 7.19641
      vertex 0 16.5 19.875
      vertex 0 7.41986 4.15388
    endloop
  endfacet
  facet normal -1 -0 0
    outer loop
      vertex 0 16.5 19.875
      vertex 0 4.62339 7.19641
      vertex 0 14.8762 20.8125
    endloop
  endfacet
  facet normal -1 0 0
    outer loop
      vertex 0 0.0986052 24.0235
      vertex 0 14.8762 22.6875
      vertex 0 0.0986052 19.4765
    endloop
  endfacet
  facet normal -1 0 0
    outer loop
      vertex 0 2.41154 10.875
      vertex 0 14.8762 20.8125
      vertex 0 4.62339 7.19641
    endloop
  endfacet
  facet normal -1 0 -0
    outer loop
      vertex 0 0.880982 28.4711
      vertex 0 14.8762 22.6875
      vertex 0 0.0986052 24.0235
    endloop
  endfacet
  facet normal -1 0 0
    outer loop
      vertex 0 0.880982 15.0289
      vertex 0 14.8762 20.8125
      vertex 0 2.41154 10.875
    endloop
  endfacet
  facet normal -1 -0 0
    outer loop
      vertex 0 14.8762 20.8125
      vertex 0 0.0986052 19.4765
      vertex 0 14.8762 22.6875
    endloop
  endfacet
  facet normal -1 0 0
    outer loop
      vertex 0 0.0986052 19.4765
      vertex 0 14.8762 20.8125
      vertex 0 0.880982 15.0289
    endloop
  endfacet
  facet normal -1 0 -0
    outer loop
      vertex 0 2.41154 32.625
      vertex 0 14.8762 22.6875
      vertex 0 0.880982 28.4711
    endloop
  endfacet
  facet normal -1 0 -0
    outer loop
      vertex 0 4.62339 36.3036
      vertex 0 14.8762 22.6875
      vertex 0 2.41154 32.625
    endloop
  endfacet
  facet normal -1 0 0
    outer loop
      vertex 0 16.5 23.625
      vertex 0 10.6787 41.6196
      vertex 0 14.2576 43.0247
    endloop
  endfacet
  facet normal -1 0 0
    outer loop
      vertex 0 16.5 23.625
      vertex 0 7.41986 39.3461
      vertex 0 10.6787 41.6196
    endloop
  endfacet
  facet normal -1 0 0
    outer loop
      vertex 0 16.5 23.625
      vertex 0 4.62339 36.3036
      vertex 0 7.41986 39.3461
    endloop
  endfacet
  facet normal -0 -0.93833 -0.34574
    outer loop
      vertex 22.6646 2.41154 10.875
      vertex 0 0.880982 15.0289
      vertex 0 2.41154 10.875
    endloop
  endfacet
  facet normal 0 -0.93833 -0.34574
    outer loop
      vertex 0 0.880982 15.0289
      vertex 22.6646 2.41154 10.875
      vertex 22.8775 0.880982 15.0289
    endloop
  endfacet
  facet normal 0 -0.572161 -0.820141
    outer loop
      vertex 0 7.41986 4.15388
      vertex 21.5149 10.6787 1.88039
      vertex 21.9681 7.41986 4.15388
    endloop
  endfacet
  facet normal -0 -0.572161 -0.820141
    outer loop
      vertex 21.5149 10.6787 1.88039
      vertex 0 7.41986 4.15388
      vertex 0 10.6787 1.88039
    endloop
  endfacet
  facet normal 0 -0.125989 -0.992032
    outer loop
      vertex 0 14.2576 0.475289
      vertex 20.4967 18 0
      vertex 21.0172 14.2576 0.475289
    endloop
  endfacet
  facet normal -0 -0.125989 -0.992032
    outer loop
      vertex 20.4967 18 0
      vertex 0 14.2576 0.475289
      vertex 0 18 0
    endloop
  endfacet
  facet normal 0 -1 0
    outer loop
      vertex 0 0.0986052 19.4765
      vertex 22.9863 0.0986052 24.0235
      vertex 0 0.0986052 24.0235
    endloop
  endfacet
  facet normal 0 -1 -0
    outer loop
      vertex 22.9863 0.0986052 24.0235
      vertex 0 0.0986052 19.4765
      vertex 22.9863 0.0986052 19.4765
    endloop
  endfacet
  facet normal 0 -0.736248 0.676712
    outer loop
      vertex 0 4.62339 36.3036
      vertex 21.9681 7.41986 39.3461
      vertex 0 7.41986 39.3461
    endloop
  endfacet
  facet normal 0 -0.736248 0.676712
    outer loop
      vertex 21.9681 7.41986 39.3461
      vertex 0 4.62339 36.3036
      vertex 22.357 4.62339 36.3036
    endloop
  endfacet
  facet normal 0 -0.93833 0.34574
    outer loop
      vertex 0 0.880982 28.4711
      vertex 22.6646 2.41154 32.625
      vertex 0 2.41154 32.625
    endloop
  endfacet
  facet normal 0 -0.93833 0.34574
    outer loop
      vertex 22.6646 2.41154 32.625
      vertex 0 0.880982 28.4711
      vertex 22.8775 0.880982 28.4711
    endloop
  endfacet
  facet normal -0 -0.984878 -0.17325
    outer loop
      vertex 22.8775 0.880982 15.0289
      vertex 0 0.0986052 19.4765
      vertex 0 0.880982 15.0289
    endloop
  endfacet
  facet normal 0 -0.984878 -0.17325
    outer loop
      vertex 0 0.0986052 19.4765
      vertex 22.8775 0.880982 15.0289
      vertex 22.9863 0.0986052 19.4765
    endloop
  endfacet
  facet normal 0 -0.572163 0.82014
    outer loop
      vertex 0 7.41986 39.3461
      vertex 21.5149 10.6787 41.6196
      vertex 0 10.6787 41.6196
    endloop
  endfacet
  facet normal 0 -0.572163 0.82014
    outer loop
      vertex 21.5149 10.6787 41.6196
      vertex 0 7.41986 39.3461
      vertex 21.9681 7.41986 39.3461
    endloop
  endfacet
  facet normal -0 -0.736251 -0.676708
    outer loop
      vertex 21.9681 7.41986 4.15388
      vertex 0 4.62339 7.19641
      vertex 0 7.41986 4.15388
    endloop
  endfacet
  facet normal 0 -0.736251 -0.676708
    outer loop
      vertex 0 4.62339 7.19641
      vertex 21.9681 7.41986 4.15388
      vertex 22.357 4.62339 7.19641
    endloop
  endfacet
  facet normal -0 -0.85701 -0.5153
    outer loop
      vertex 22.357 4.62339 7.19641
      vertex 0 2.41154 10.875
      vertex 0 4.62339 7.19641
    endloop
  endfacet
  facet normal 0 -0.85701 -0.5153
    outer loop
      vertex 0 2.41154 10.875
      vertex 22.357 4.62339 7.19641
      vertex 22.6646 2.41154 10.875
    endloop
  endfacet
  facet normal 0 -0.857011 0.515299
    outer loop
      vertex 0 2.41154 32.625
      vertex 22.357 4.62339 36.3036
      vertex 0 4.62339 36.3036
    endloop
  endfacet
  facet normal 0 -0.857011 0.515299
    outer loop
      vertex 22.357 4.62339 36.3036
      vertex 0 2.41154 32.625
      vertex 22.6646 2.41154 32.625
    endloop
  endfacet
  facet normal 0 -0.36545 0.930831
    outer loop
      vertex 0 10.6787 41.6196
      vertex 21.0172 14.2576 43.0247
      vertex 0 14.2576 43.0247
    endloop
  endfacet
  facet normal 0 -0.36545 0.930831
    outer loop
      vertex 21.0172 14.2576 43.0247
      vertex 0 10.6787 41.6196
      vertex 21.5149 10.6787 41.6196
    endloop
  endfacet
  facet normal 0 -0.365451 -0.930831
    outer loop
      vertex 0 10.6787 1.88039
      vertex 21.0172 14.2576 0.475289
      vertex 21.5149 10.6787 1.88039
    endloop
  endfacet
  facet normal -0 -0.365451 -0.930831
    outer loop
      vertex 21.0172 14.2576 0.475289
      vertex 0 10.6787 1.88039
      vertex 0 14.2576 0.475289
    endloop
  endfacet
  facet normal 0 -0.984878 0.17325
    outer loop
      vertex 0 0.0986052 24.0235
      vertex 22.8775 0.880982 28.4711
      vertex 0 0.880982 28.4711
    endloop
  endfacet
  facet normal 0 -0.984878 0.17325
    outer loop
      vertex 22.8775 0.880982 28.4711
      vertex 0 0.0986052 24.0235
      vertex 22.9863 0.0986052 24.0235
    endloop
  endfacet
  facet normal 0 -0.125992 0.992031
    outer loop
      vertex 0 14.2576 43.0247
      vertex 20.4967 18 43.5
      vertex 0 18 43.5
    endloop
  endfacet
  facet normal 0 -0.125992 0.992031
    outer loop
      vertex 20.4967 18 43.5
      vertex 0 14.2576 43.0247
      vertex 21.0172 14.2576 43.0247
    endloop
  endfacet
  facet normal 0 0.572143 -0.820154
    outer loop
      vertex 0 140.321 1.88039
      vertex 3.0319 143.58 4.15388
      vertex 3.48512 140.321 1.88039
    endloop
  endfacet
  facet normal 0 0.572143 -0.820154
    outer loop
      vertex 3.0319 143.58 4.15388
      vertex 0 140.321 1.88039
      vertex 0 143.58 4.15388
    endloop
  endfacet
  facet normal 0 0.126002 -0.99203
    outer loop
      vertex 0 133 0
      vertex 3.98284 136.742 0.475289
      vertex 4.50331 133 0
    endloop
  endfacet
  facet normal 0 0.126002 -0.99203
    outer loop
      vertex 3.98284 136.742 0.475289
      vertex 0 133 0
      vertex 0 136.742 0.475289
    endloop
  endfacet
  facet normal 0 0.938298 -0.345828
    outer loop
      vertex 0 148.588 10.875
      vertex 2.12252 150.119 15.0289
      vertex 2.33538 148.588 10.875
    endloop
  endfacet
  facet normal 0 0.938298 -0.345828
    outer loop
      vertex 2.12252 150.119 15.0289
      vertex 0 148.588 10.875
      vertex 0 150.119 15.0289
    endloop
  endfacet
  facet normal 0 0.736184 0.676781
    outer loop
      vertex 2.64299 146.377 36.3036
      vertex 0 143.58 39.3461
      vertex 3.0319 143.58 39.3461
    endloop
  endfacet
  facet normal 0 0.736184 0.676781
    outer loop
      vertex 0 143.58 39.3461
      vertex 2.64299 146.377 36.3036
      vertex 0 146.377 36.3036
    endloop
  endfacet
  facet normal 0 1 -0
    outer loop
      vertex 2.01371 150.901 19.4765
      vertex 0 150.901 24.0235
      vertex 2.01371 150.901 24.0235
    endloop
  endfacet
  facet normal 0 1 0
    outer loop
      vertex 0 150.901 24.0235
      vertex 2.01371 150.901 19.4765
      vertex 0 150.901 19.4765
    endloop
  endfacet
  facet normal 0 0.984892 -0.173169
    outer loop
      vertex 0 150.119 15.0289
      vertex 2.01371 150.901 19.4765
      vertex 2.12252 150.119 15.0289
    endloop
  endfacet
  facet normal 0 0.984892 -0.173169
    outer loop
      vertex 2.01371 150.901 19.4765
      vertex 0 150.119 15.0289
      vertex 0 150.901 19.4765
    endloop
  endfacet
  facet normal 0 0.572144 0.820153
    outer loop
      vertex 0 140.321 41.6196
      vertex 3.0319 143.58 39.3461
      vertex 0 143.58 39.3461
    endloop
  endfacet
  facet normal 0 0.572144 0.820153
    outer loop
      vertex 3.0319 143.58 39.3461
      vertex 0 140.321 41.6196
      vertex 3.48512 140.321 41.6196
    endloop
  endfacet
  facet normal 0 0.938298 0.345828
    outer loop
      vertex 2.12252 150.119 28.4711
      vertex 0 148.588 32.625
      vertex 2.33538 148.588 32.625
    endloop
  endfacet
  facet normal 0 0.938298 0.345828
    outer loop
      vertex 0 148.588 32.625
      vertex 2.12252 150.119 28.4711
      vertex 0 150.119 28.4711
    endloop
  endfacet
  facet normal 0 0.736187 -0.676778
    outer loop
      vertex 0 143.58 4.15388
      vertex 2.64299 146.377 7.19641
      vertex 3.0319 143.58 4.15388
    endloop
  endfacet
  facet normal 0 0.736187 -0.676778
    outer loop
      vertex 2.64299 146.377 7.19641
      vertex 0 143.58 4.15388
      vertex 0 146.377 7.19641
    endloop
  endfacet
  facet normal 0 0.365442 -0.930834
    outer loop
      vertex 0 136.742 0.475289
      vertex 3.48512 140.321 1.88039
      vertex 3.98284 136.742 0.475289
    endloop
  endfacet
  facet normal 0 0.365442 -0.930834
    outer loop
      vertex 3.48512 140.321 1.88039
      vertex 0 136.742 0.475289
      vertex 0 140.321 1.88039
    endloop
  endfacet
  facet normal 0 0.857098 0.515153
    outer loop
      vertex 2.33538 148.588 32.625
      vertex 0 146.377 36.3036
      vertex 2.64299 146.377 36.3036
    endloop
  endfacet
  facet normal 0 0.857098 0.515153
    outer loop
      vertex 0 146.377 36.3036
      vertex 2.33538 148.588 32.625
      vertex 0 148.588 32.625
    endloop
  endfacet
  facet normal 0 0.857097 -0.515155
    outer loop
      vertex 0 146.377 7.19641
      vertex 2.33538 148.588 10.875
      vertex 2.64299 146.377 7.19641
    endloop
  endfacet
  facet normal 0 0.857097 -0.515155
    outer loop
      vertex 2.33538 148.588 10.875
      vertex 0 146.377 7.19641
      vertex 0 148.588 10.875
    endloop
  endfacet
  facet normal 0 0.984892 0.173169
    outer loop
      vertex 2.01371 150.901 24.0235
      vertex 0 150.119 28.4711
      vertex 2.12252 150.119 28.4711
    endloop
  endfacet
  facet normal 0 0.984892 0.173169
    outer loop
      vertex 0 150.119 28.4711
      vertex 2.01371 150.901 24.0235
      vertex 0 150.901 24.0235
    endloop
  endfacet
  facet normal 0 0.126005 0.99203
    outer loop
      vertex 0 133 43.5
      vertex 3.98284 136.742 43.0247
      vertex 0 136.742 43.0247
    endloop
  endfacet
  facet normal 0 0.126005 0.99203
    outer loop
      vertex 3.98284 136.742 43.0247
      vertex 0 133 43.5
      vertex 4.50331 133 43.5
    endloop
  endfacet
  facet normal 0 0.365442 0.930834
    outer loop
      vertex 0 136.742 43.0247
      vertex 3.48512 140.321 41.6196
      vertex 0 140.321 41.6196
    endloop
  endfacet
  facet normal 0 0.365442 0.930834
    outer loop
      vertex 3.48512 140.321 41.6196
      vertex 0 136.742 43.0247
      vertex 3.98284 136.742 43.0247
    endloop
  endfacet
  facet normal 0.990468 0.137744 0
    outer loop
      vertex 20.2681 19.6439 43.5
      vertex 20.4795 18.1238 22.6875
      vertex 20.2681 19.6439 0
    endloop
  endfacet
  facet normal 0.990469 0.137734 5.31726e-07
    outer loop
      vertex 20.7053 16.5 23.625
      vertex 20.2681 19.6439 43.5
      vertex 20.4967 18 43.5
    endloop
  endfacet
  facet normal 0.99047 0.137732 9.20715e-07
    outer loop
      vertex 20.2681 19.6439 43.5
      vertex 20.7053 16.5 23.625
      vertex 20.4795 18.1238 22.6875
    endloop
  endfacet
  facet normal 0.990466 0.137756 -1.14768e-06
    outer loop
      vertex 21.0172 14.2576 43.0247
      vertex 20.7053 16.5 23.625
      vertex 20.4967 18 43.5
    endloop
  endfacet
  facet normal 0.990468 0.137744 -1.98027e-06
    outer loop
      vertex 21.9681 7.41986 39.3461
      vertex 20.7053 16.5 23.625
      vertex 21.5149 10.6787 41.6196
    endloop
  endfacet
  facet normal 0.990468 0.137741 -2.95351e-06
    outer loop
      vertex 21.5149 10.6787 41.6196
      vertex 20.7053 16.5 23.625
      vertex 21.0172 14.2576 43.0247
    endloop
  endfacet
  facet normal 0.990468 0.137744 -0
    outer loop
      vertex 20.4795 18.1238 20.8125
      vertex 20.2681 19.6439 0
      vertex 20.4795 18.1238 22.6875
    endloop
  endfacet
  facet normal 0.99047 0.137732 -9.20715e-07
    outer loop
      vertex 20.7053 16.5 19.875
      vertex 20.2681 19.6439 0
      vertex 20.4795 18.1238 20.8125
    endloop
  endfacet
  facet normal 0.990469 0.137734 -5.31726e-07
    outer loop
      vertex 20.2681 19.6439 0
      vertex 20.7053 16.5 19.875
      vertex 20.4967 18 0
    endloop
  endfacet
  facet normal 0.990469 0.137736 9.11485e-06
    outer loop
      vertex 22.357 4.62339 7.19641
      vertex 20.7053 16.5 19.875
      vertex 20.9311 14.8762 20.8125
    endloop
  endfacet
  facet normal 0.990466 0.137756 1.14768e-06
    outer loop
      vertex 20.7053 16.5 19.875
      vertex 21.0172 14.2576 0.475289
      vertex 20.4967 18 0
    endloop
  endfacet
  facet normal 0.990468 0.137744 -1.6031e-06
    outer loop
      vertex 22.357 4.62339 36.3036
      vertex 20.7053 16.5 23.625
      vertex 21.9681 7.41986 39.3461
    endloop
  endfacet
  facet normal 0.990469 0.137736 -9.11485e-06
    outer loop
      vertex 20.7053 16.5 23.625
      vertex 22.357 4.62339 36.3036
      vertex 20.9311 14.8762 22.6875
    endloop
  endfacet
  facet normal 0.990467 0.13775 -0
    outer loop
      vertex 22.9863 0.0986052 19.4765
      vertex 20.9311 14.8762 20.8125
      vertex 22.9863 0.0986052 24.0235
    endloop
  endfacet
  facet normal 0.990468 0.137746 -1.64354e-06
    outer loop
      vertex 22.6646 2.41154 32.625
      vertex 20.9311 14.8762 22.6875
      vertex 22.357 4.62339 36.3036
    endloop
  endfacet
  facet normal 0.990467 0.137749 2.05429e-06
    outer loop
      vertex 22.8775 0.880982 15.0289
      vertex 20.9311 14.8762 20.8125
      vertex 22.9863 0.0986052 19.4765
    endloop
  endfacet
  facet normal 0.990467 0.137753 7.44949e-06
    outer loop
      vertex 22.8775 0.880982 28.4711
      vertex 20.9311 14.8762 22.6875
      vertex 22.6646 2.41154 32.625
    endloop
  endfacet
  facet normal 0.990467 0.13775 0
    outer loop
      vertex 20.9311 14.8762 22.6875
      vertex 22.9863 0.0986052 24.0235
      vertex 20.9311 14.8762 20.8125
    endloop
  endfacet
  facet normal 0.990467 0.137749 -2.05429e-06
    outer loop
      vertex 22.9863 0.0986052 24.0235
      vertex 20.9311 14.8762 22.6875
      vertex 22.8775 0.880982 28.4711
    endloop
  endfacet
  facet normal 0.990467 0.137753 -7.44949e-06
    outer loop
      vertex 22.6646 2.41154 10.875
      vertex 20.9311 14.8762 20.8125
      vertex 22.8775 0.880982 15.0289
    endloop
  endfacet
  facet normal 0.990468 0.137746 1.64355e-06
    outer loop
      vertex 22.357 4.62339 7.19641
      vertex 20.9311 14.8762 20.8125
      vertex 22.6646 2.41154 10.875
    endloop
  endfacet
  facet normal 0.990468 0.137741 2.95351e-06
    outer loop
      vertex 20.7053 16.5 19.875
      vertex 21.5149 10.6787 1.88039
      vertex 21.0172 14.2576 0.475289
    endloop
  endfacet
  facet normal 0.990468 0.137744 1.98027e-06
    outer loop
      vertex 20.7053 16.5 19.875
      vertex 21.9681 7.41986 4.15388
      vertex 21.5149 10.6787 1.88039
    endloop
  endfacet
  facet normal 0.990468 0.137744 1.60309e-06
    outer loop
      vertex 20.7053 16.5 19.875
      vertex 22.357 4.62339 7.19641
      vertex 21.9681 7.41986 4.15388
    endloop
  endfacet
  facet normal 0.990467 0.137752 -1.13609e-05
    outer loop
      vertex 4.76424 131.124 22.6875
      vertex 2.01371 150.901 24.0235
      vertex 2.12252 150.119 28.4711
    endloop
  endfacet
  facet normal 0.990467 0.137751 0
    outer loop
      vertex 2.01371 150.901 24.0235
      vertex 4.76424 131.124 22.6875
      vertex 2.01371 150.901 19.4765
    endloop
  endfacet
  facet normal 0.990468 0.137745 1.35168e-05
    outer loop
      vertex 4.76424 131.124 22.6875
      vertex 2.12252 150.119 28.4711
      vertex 2.33538 148.588 32.625
    endloop
  endfacet
  facet normal 0.990467 0.137751 -0
    outer loop
      vertex 4.76424 131.124 20.8125
      vertex 2.01371 150.901 19.4765
      vertex 4.76424 131.124 22.6875
    endloop
  endfacet
  facet normal 0.990465 0.137764 -2.17311e-05
    outer loop
      vertex 4.76424 131.124 22.6875
      vertex 2.33538 148.588 32.625
      vertex 2.64299 146.377 36.3036
    endloop
  endfacet
  facet normal 0.990467 0.137752 1.13609e-05
    outer loop
      vertex 2.01371 150.901 19.4765
      vertex 4.76424 131.124 20.8125
      vertex 2.12252 150.119 15.0289
    endloop
  endfacet
  facet normal 0.990469 0.137734 1.28014e-05
    outer loop
      vertex 4.76424 131.124 22.6875
      vertex 2.64299 146.377 36.3036
      vertex 3.0319 143.58 39.3461
    endloop
  endfacet
  facet normal 0.990468 0.137745 -1.35168e-05
    outer loop
      vertex 2.12252 150.119 15.0289
      vertex 4.76424 131.124 20.8125
      vertex 2.33538 148.588 10.875
    endloop
  endfacet
  facet normal 0.990468 0.137745 4.64893e-06
    outer loop
      vertex 4.76424 131.124 22.6875
      vertex 3.0319 143.58 39.3461
      vertex 3.48512 140.321 41.6196
    endloop
  endfacet
  facet normal 0.990465 0.137764 2.17311e-05
    outer loop
      vertex 2.33538 148.588 10.875
      vertex 4.76424 131.124 20.8125
      vertex 2.64299 146.377 7.19641
    endloop
  endfacet
  facet normal 0.990468 0.137743 4.8266e-06
    outer loop
      vertex 4.99007 129.5 23.625
      vertex 3.48512 140.321 41.6196
      vertex 3.98284 136.742 43.0247
    endloop
  endfacet
  facet normal 0.990469 0.137734 -1.28014e-05
    outer loop
      vertex 2.64299 146.377 7.19641
      vertex 4.76424 131.124 20.8125
      vertex 3.0319 143.58 4.15388
    endloop
  endfacet
  facet normal 0.990465 0.137762 -2.46301e-06
    outer loop
      vertex 4.99007 129.5 23.625
      vertex 3.98284 136.742 43.0247
      vertex 4.50331 133 43.5
    endloop
  endfacet
  facet normal 0.990468 0.137745 -4.64893e-06
    outer loop
      vertex 3.0319 143.58 4.15388
      vertex 4.76424 131.124 20.8125
      vertex 3.48512 140.321 1.88039
    endloop
  endfacet
  facet normal 0.990469 0.137737 -8.36219e-06
    outer loop
      vertex 4.99007 129.5 19.875
      vertex 3.48512 140.321 1.88039
      vertex 4.76424 131.124 20.8125
    endloop
  endfacet
  facet normal 0.990469 0.137737 8.36219e-06
    outer loop
      vertex 3.48512 140.321 41.6196
      vertex 4.99007 129.5 23.625
      vertex 4.76424 131.124 22.6875
    endloop
  endfacet
  facet normal 0.990467 0.137749 -5.10013e-08
    outer loop
      vertex 5.26975 127.489 43.5
      vertex 4.99007 129.5 23.625
      vertex 4.50331 133 43.5
    endloop
  endfacet
  facet normal 0.990454 0.137845 0
    outer loop
      vertex 5.21589 127.876 22.6875
      vertex 5.26975 127.489 43.5
      vertex 5.21589 127.876 20.8125
    endloop
  endfacet
  facet normal 0.99047 0.137728 -2.21217e-06
    outer loop
      vertex 4.99007 129.5 23.625
      vertex 5.26975 127.489 43.5
      vertex 5.21589 127.876 22.6875
    endloop
  endfacet
  facet normal 0.990468 0.137743 -4.8266e-06
    outer loop
      vertex 3.48512 140.321 1.88039
      vertex 4.99007 129.5 19.875
      vertex 3.98284 136.742 0.475289
    endloop
  endfacet
  facet normal 0.990465 0.137762 2.46301e-06
    outer loop
      vertex 3.98284 136.742 0.475289
      vertex 4.99007 129.5 19.875
      vertex 4.50331 133 0
    endloop
  endfacet
  facet normal 0.99047 0.137728 2.21217e-06
    outer loop
      vertex 5.26975 127.489 0
      vertex 4.99007 129.5 19.875
      vertex 5.21589 127.876 20.8125
    endloop
  endfacet
  facet normal 0.990467 0.137749 5.10013e-08
    outer loop
      vertex 4.99007 129.5 19.875
      vertex 5.26975 127.489 0
      vertex 4.50331 133 0
    endloop
  endfacet
  facet normal 0.990454 0.137845 -0
    outer loop
      vertex 5.26975 127.489 0
      vertex 5.21589 127.876 20.8125
      vertex 5.26975 127.489 43.5
    endloop
  endfacet
  facet normal 0.965919 0.258843 0
    outer loop
      vertex 9.81362 116.792 43.5
      vertex 9.5502 117.775 0
      vertex 9.5502 117.775 43.5
    endloop
  endfacet
  facet normal 0.965919 0.258843 0
    outer loop
      vertex 9.5502 117.775 0
      vertex 9.81362 116.792 43.5
      vertex 9.81362 116.792 0
    endloop
  endfacet
  facet normal 0.986101 0.166144 0
    outer loop
      vertex 15.301 89.9451 43.5
      vertex 15.034 91.5298 0
      vertex 15.034 91.5298 43.5
    endloop
  endfacet
  facet normal 0.986101 0.166144 0
    outer loop
      vertex 15.034 91.5298 0
      vertex 15.301 89.9451 43.5
      vertex 15.301 89.9451 0
    endloop
  endfacet
  facet normal 0.971189 0.238311 0
    outer loop
      vertex 10.6193 113.6 43.5
      vertex 10.3484 114.704 0
      vertex 10.3484 114.704 43.5
    endloop
  endfacet
  facet normal 0.971189 0.238311 0
    outer loop
      vertex 10.3484 114.704 0
      vertex 10.6193 113.6 43.5
      vertex 10.6193 113.6 0
    endloop
  endfacet
  facet normal 0.998288 0.058498 0
    outer loop
      vertex 21.1896 39.9737 43.5
      vertex 21.1146 41.2536 0
      vertex 21.1146 41.2536 43.5
    endloop
  endfacet
  facet normal 0.998288 0.058498 0
    outer loop
      vertex 21.1146 41.2536 0
      vertex 21.1896 39.9737 43.5
      vertex 21.1896 39.9737 0
    endloop
  endfacet
  facet normal 0.9612 0.275852 0
    outer loop
      vertex 9.2898 118.714 43.5
      vertex 9.03266 119.61 0
      vertex 9.03266 119.61 43.5
    endloop
  endfacet
  facet normal 0.9612 0.275852 0
    outer loop
      vertex 9.03266 119.61 0
      vertex 9.2898 118.714 43.5
      vertex 9.2898 118.714 0
    endloop
  endfacet
  facet normal 0.0329609 0.999457 -0
    outer loop
      vertex 5.39104 127.485 0
      vertex 5.26975 127.489 43.5
      vertex 5.39104 127.485 43.5
    endloop
  endfacet
  facet normal 0.0329609 0.999457 0
    outer loop
      vertex 5.26975 127.489 43.5
      vertex 5.39104 127.485 0
      vertex 5.26975 127.489 0
    endloop
  endfacet
  facet normal 0.969637 0.244549 0
    outer loop
      vertex 10.3484 114.704 43.5
      vertex 10.0798 115.769 0
      vertex 10.0798 115.769 43.5
    endloop
  endfacet
  facet normal 0.969637 0.244549 0
    outer loop
      vertex 10.0798 115.769 0
      vertex 10.3484 114.704 43.5
      vertex 10.3484 114.704 0
    endloop
  endfacet
  facet normal 0.985558 0.169341 0
    outer loop
      vertex 15.034 91.5298 43.5
      vertex 14.7646 93.0977 0
      vertex 14.7646 93.0977 43.5
    endloop
  endfacet
  facet normal 0.985558 0.169341 0
    outer loop
      vertex 14.7646 93.0977 0
      vertex 15.034 91.5298 43.5
      vertex 15.034 91.5298 0
    endloop
  endfacet
  facet normal 0.994013 0.109264 0
    outer loop
      vertex 19.5886 58.7802 43.5
      vertex 19.413 60.3777 0
      vertex 19.413 60.3777 43.5
    endloop
  endfacet
  facet normal 0.994013 0.109264 0
    outer loop
      vertex 19.413 60.3777 0
      vertex 19.5886 58.7802 43.5
      vertex 19.5886 58.7802 0
    endloop
  endfacet
  facet normal 0.999755 0.0221181 0
    outer loop
      vertex 21.4597 33.0518 43.5
      vertex 21.4363 34.1095 0
      vertex 21.4363 34.1095 43.5
    endloop
  endfacet
  facet normal 0.999755 0.0221181 0
    outer loop
      vertex 21.4363 34.1095 0
      vertex 21.4597 33.0518 43.5
      vertex 21.4597 33.0518 0
    endloop
  endfacet
  facet normal 0.999995 -0.00311157 0
    outer loop
      vertex 21.4772 30.1281 43.5
      vertex 21.4801 31.0601 0
      vertex 21.4801 31.0601 43.5
    endloop
  endfacet
  facet normal 0.999995 -0.00311157 0
    outer loop
      vertex 21.4801 31.0601 0
      vertex 21.4772 30.1281 43.5
      vertex 21.4772 30.1281 0
    endloop
  endfacet
  facet normal 0.992944 0.118582 0
    outer loop
      vertex 19.042 63.6127 43.5
      vertex 18.8468 65.2472 0
      vertex 18.8468 65.2472 43.5
    endloop
  endfacet
  facet normal 0.992944 0.118582 0
    outer loop
      vertex 18.8468 65.2472 0
      vertex 19.042 63.6127 43.5
      vertex 19.042 63.6127 0
    endloop
  endfacet
  facet normal 0.978381 0.206811 0
    outer loop
      vertex 12.2762 106.204 43.5
      vertex 11.9976 107.522 0
      vertex 11.9976 107.522 43.5
    endloop
  endfacet
  facet normal 0.978381 0.206811 0
    outer loop
      vertex 11.9976 107.522 0
      vertex 12.2762 106.204 43.5
      vertex 12.2762 106.204 0
    endloop
  endfacet
  facet normal 0.967776 0.251811 0
    outer loop
      vertex 10.0798 115.769 43.5
      vertex 9.81362 116.792 0
      vertex 9.81362 116.792 43.5
    endloop
  endfacet
  facet normal 0.967776 0.251811 0
    outer loop
      vertex 9.81362 116.792 0
      vertex 10.0798 115.769 43.5
      vertex 10.0798 115.769 0
    endloop
  endfacet
  facet normal 0.999982 0.00594922 0
    outer loop
      vertex 21.4801 31.0601 43.5
      vertex 21.4743 32.035 0
      vertex 21.4743 32.035 43.5
    endloop
  endfacet
  facet normal 0.999982 0.00594922 0
    outer loop
      vertex 21.4743 32.035 0
      vertex 21.4801 31.0601 43.5
      vertex 21.4801 31.0601 0
    endloop
  endfacet
  facet normal 0.998731 -0.0503551 0
    outer loop
      vertex 21.378 26.8465 43.5
      vertex 21.4159 27.5982 0
      vertex 21.4159 27.5982 43.5
    endloop
  endfacet
  facet normal 0.998731 -0.0503551 0
    outer loop
      vertex 21.4159 27.5982 0
      vertex 21.378 26.8465 43.5
      vertex 21.378 26.8465 0
    endloop
  endfacet
  facet normal 0.993668 0.11236 0
    outer loop
      vertex 19.413 60.3777 43.5
      vertex 19.2308 61.989 0
      vertex 19.2308 61.989 43.5
    endloop
  endfacet
  facet normal 0.993668 0.11236 0
    outer loop
      vertex 19.2308 61.989 0
      vertex 19.413 60.3777 43.5
      vertex 19.413 60.3777 0
    endloop
  endfacet
  facet normal 0.992583 0.121567 0
    outer loop
      vertex 18.8468 65.2472 43.5
      vertex 18.6455 66.8908 0
      vertex 18.6455 66.8908 43.5
    endloop
  endfacet
  facet normal 0.992583 0.121567 0
    outer loop
      vertex 18.6455 66.8908 0
      vertex 18.8468 65.2472 43.5
      vertex 18.8468 65.2472 0
    endloop
  endfacet
  facet normal 0.808239 0.588855 0
    outer loop
      vertex 6.29036 126.68 43.5
      vertex 6.09729 126.945 0
      vertex 6.09729 126.945 43.5
    endloop
  endfacet
  facet normal 0.808239 0.588855 0
    outer loop
      vertex 6.09729 126.945 0
      vertex 6.29036 126.68 43.5
      vertex 6.29036 126.68 0
    endloop
  endfacet
  facet normal 0.983125 0.182938 0
    outer loop
      vertex 13.9446 97.6852 43.5
      vertex 13.6682 99.1706 0
      vertex 13.6682 99.1706 43.5
    endloop
  endfacet
  facet normal 0.983125 0.182938 0
    outer loop
      vertex 13.6682 99.1706 0
      vertex 13.9446 97.6852 43.5
      vertex 13.9446 97.6852 0
    endloop
  endfacet
  facet normal 0.987716 -0.156261 0
    outer loop
      vertex 21.0598 23.8062 43.5
      vertex 21.1405 24.3163 0
      vertex 21.1405 24.3163 43.5
    endloop
  endfacet
  facet normal 0.987716 -0.156261 0
    outer loop
      vertex 21.1405 24.3163 0
      vertex 21.0598 23.8062 43.5
      vertex 21.0598 23.8062 0
    endloop
  endfacet
  facet normal 0.984399 0.175951 0
    outer loop
      vertex 14.493 94.6473 43.5
      vertex 14.2196 96.1769 0
      vertex 14.2196 96.1769 43.5
    endloop
  endfacet
  facet normal 0.984399 0.175951 0
    outer loop
      vertex 14.2196 96.1769 0
      vertex 14.493 94.6473 43.5
      vertex 14.493 94.6473 0
    endloop
  endfacet
  facet normal 0.991782 -0.127938 0
    outer loop
      vertex 21.1405 24.3163 43.5
      vertex 21.2127 24.876 0
      vertex 21.2127 24.876 43.5
    endloop
  endfacet
  facet normal 0.991782 -0.127938 0
    outer loop
      vertex 21.2127 24.876 0
      vertex 21.1405 24.3163 43.5
      vertex 21.1405 24.3163 0
    endloop
  endfacet
  facet normal 0.975213 0.221268 0
    outer loop
      vertex 11.4426 110.06 43.5
      vertex 11.1667 111.276 0
      vertex 11.1667 111.276 43.5
    endloop
  endfacet
  facet normal 0.975213 0.221268 0
    outer loop
      vertex 11.1667 111.276 0
      vertex 11.4426 110.06 43.5
      vertex 11.4426 110.06 0
    endloop
  endfacet
  facet normal 0.984985 0.172639 0
    outer loop
      vertex 14.7646 93.0977 43.5
      vertex 14.493 94.6473 0
      vertex 14.493 94.6473 43.5
    endloop
  endfacet
  facet normal 0.984985 0.172639 0
    outer loop
      vertex 14.493 94.6473 0
      vertex 14.7646 93.0977 43.5
      vertex 14.7646 93.0977 0
    endloop
  endfacet
  facet normal 0.845838 0.53344 0
    outer loop
      vertex 6.48965 126.364 43.5
      vertex 6.29036 126.68 0
      vertex 6.29036 126.68 43.5
    endloop
  endfacet
  facet normal 0.845838 0.53344 0
    outer loop
      vertex 6.29036 126.68 0
      vertex 6.48965 126.364 43.5
      vertex 6.48965 126.364 0
    endloop
  endfacet
  facet normal 0.983782 0.179368 0
    outer loop
      vertex 14.2196 96.1769 43.5
      vertex 13.9446 97.6852 0
      vertex 13.9446 97.6852 43.5
    endloop
  endfacet
  facet normal 0.983782 0.179368 0
    outer loop
      vertex 13.9446 97.6852 0
      vertex 14.2196 96.1769 43.5
      vertex 14.2196 96.1769 0
    endloop
  endfacet
  facet normal 0.98184 -0.18971 0
    outer loop
      vertex 20.9709 23.3461 43.5
      vertex 21.0598 23.8062 0
      vertex 21.0598 23.8062 43.5
    endloop
  endfacet
  facet normal 0.98184 -0.18971 0
    outer loop
      vertex 21.0598 23.8062 0
      vertex 20.9709 23.3461 43.5
      vertex 20.9709 23.3461 0
    endloop
  endfacet
  facet normal 0.963633 0.267231 0
    outer loop
      vertex 9.5502 117.775 43.5
      vertex 9.2898 118.714 0
      vertex 9.2898 118.714 43.5
    endloop
  endfacet
  facet normal 0.963633 0.267231 0
    outer loop
      vertex 9.2898 118.714 0
      vertex 9.5502 117.775 43.5
      vertex 9.5502 117.775 0
    endloop
  endfacet
  facet normal 0.994368 0.10598 0
    outer loop
      vertex 19.7572 57.1983 43.5
      vertex 19.5886 58.7802 0
      vertex 19.5886 58.7802 43.5
    endloop
  endfacet
  facet normal 0.994368 0.10598 0
    outer loop
      vertex 19.5886 58.7802 0
      vertex 19.7572 57.1983 43.5
      vertex 19.7572 57.1983 0
    endloop
  endfacet
  facet normal 0.5325 0.84643 -0
    outer loop
      vertex 5.73061 127.32 0
      vertex 5.55735 127.429 43.5
      vertex 5.73061 127.32 43.5
    endloop
  endfacet
  facet normal 0.5325 0.84643 0
    outer loop
      vertex 5.55735 127.429 43.5
      vertex 5.73061 127.32 0
      vertex 5.55735 127.429 0
    endloop
  endfacet
  facet normal 0.941935 0.335796 0
    outer loop
      vertex 8.04183 122.74 43.5
      vertex 7.80476 123.405 0
      vertex 7.80476 123.405 43.5
    endloop
  endfacet
  facet normal 0.941935 0.335796 0
    outer loop
      vertex 7.80476 123.405 0
      vertex 8.04183 122.74 43.5
      vertex 8.04183 122.74 0
    endloop
  endfacet
  facet normal 0.991066 0.133369 0
    outer loop
      vertex 18.0066 71.8601 43.5
      vertex 17.7827 73.5239 0
      vertex 17.7827 73.5239 43.5
    endloop
  endfacet
  facet normal 0.991066 0.133369 0
    outer loop
      vertex 17.7827 73.5239 0
      vertex 18.0066 71.8601 43.5
      vertex 18.0066 71.8601 0
    endloop
  endfacet
  facet normal 0.907732 0.41955 0
    outer loop
      vertex 7.12289 125.109 43.5
      vertex 6.90612 125.578 0
      vertex 6.90612 125.578 43.5
    endloop
  endfacet
  facet normal 0.907732 0.41955 0
    outer loop
      vertex 6.90612 125.578 0
      vertex 7.12289 125.109 43.5
      vertex 7.12289 125.109 0
    endloop
  endfacet
  facet normal 0.980981 0.194106 0
    outer loop
      vertex 13.1126 102.067 43.5
      vertex 12.834 103.475 0
      vertex 12.834 103.475 43.5
    endloop
  endfacet
  facet normal 0.980981 0.194106 0
    outer loop
      vertex 12.834 103.475 0
      vertex 13.1126 102.067 43.5
      vertex 13.1126 102.067 0
    endloop
  endfacet
  facet normal 0.988091 0.153872 0
    outer loop
      vertex 16.3398 83.4697 43.5
      vertex 16.085 85.1059 0
      vertex 16.085 85.1059 43.5
    endloop
  endfacet
  facet normal 0.988091 0.153872 0
    outer loop
      vertex 16.085 85.1059 0
      vertex 16.3398 83.4697 43.5
      vertex 16.3398 83.4697 0
    endloop
  endfacet
  facet normal 0.987621 0.156858 0
    outer loop
      vertex 16.085 85.1059 43.5
      vertex 15.8268 86.7316 0
      vertex 15.8268 86.7316 43.5
    endloop
  endfacet
  facet normal 0.987621 0.156858 0
    outer loop
      vertex 15.8268 86.7316 0
      vertex 16.085 85.1059 43.5
      vertex 16.085 85.1059 0
    endloop
  endfacet
  facet normal 0.996723 0.0808888 0
    outer loop
      vertex 20.7315 46.6881 43.5
      vertex 20.6154 48.1187 0
      vertex 20.6154 48.1187 43.5
    endloop
  endfacet
  facet normal 0.996723 0.0808888 0
    outer loop
      vertex 20.6154 48.1187 0
      vertex 20.7315 46.6881 43.5
      vertex 20.7315 46.6881 0
    endloop
  endfacet
  facet normal 0.996502 -0.0835727 0
    outer loop
      vertex 21.2764 25.4847 43.5
      vertex 21.3315 26.1417 0
      vertex 21.3315 26.1417 43.5
    endloop
  endfacet
  facet normal 0.996502 -0.0835727 0
    outer loop
      vertex 21.3315 26.1417 0
      vertex 21.2764 25.4847 43.5
      vertex 21.2764 25.4847 0
    endloop
  endfacet
  facet normal 0.976372 0.216096 0
    outer loop
      vertex 11.7197 108.808 43.5
      vertex 11.4426 110.06 0
      vertex 11.4426 110.06 43.5
    endloop
  endfacet
  facet normal 0.976372 0.216096 0
    outer loop
      vertex 11.4426 110.06 0
      vertex 11.7197 108.808 43.5
      vertex 11.7197 108.808 0
    endloop
  endfacet
  facet normal 0.972498 -0.232909 0
    outer loop
      vertex 20.9652 23.3223 43.5
      vertex 20.9709 23.3461 0
      vertex 20.9709 23.3461 43.5
    endloop
  endfacet
  facet normal 0.972498 -0.232909 0
    outer loop
      vertex 20.9709 23.3461 0
      vertex 20.9652 23.3223 43.5
      vertex 20.9652 23.3223 0
    endloop
  endfacet
  facet normal 0.998574 0.0533834 0
    outer loop
      vertex 21.2562 38.7279 43.5
      vertex 21.1896 39.9737 0
      vertex 21.1896 39.9737 43.5
    endloop
  endfacet
  facet normal 0.998574 0.0533834 0
    outer loop
      vertex 21.1896 39.9737 0
      vertex 21.2562 38.7279 43.5
      vertex 21.2562 38.7279 0
    endloop
  endfacet
  facet normal 0.919029 0.394189 0
    outer loop
      vertex 7.34507 124.591 43.5
      vertex 7.12289 125.109 0
      vertex 7.12289 125.109 43.5
    endloop
  endfacet
  facet normal 0.919029 0.394189 0
    outer loop
      vertex 7.12289 125.109 0
      vertex 7.34507 124.591 43.5
      vertex 7.34507 124.591 0
    endloop
  endfacet
  facet normal 0.955164 0.296077 0
    outer loop
      vertex 8.77905 120.461 43.5
      vertex 8.52921 121.267 0
      vertex 8.52921 121.267 43.5
    endloop
  endfacet
  facet normal 0.955164 0.296077 0
    outer loop
      vertex 8.52921 121.267 0
      vertex 8.77905 120.461 43.5
      vertex 8.77905 120.461 0
    endloop
  endfacet
  facet normal 0.998858 0.0477769 0
    outer loop
      vertex 21.3141 37.5174 43.5
      vertex 21.2562 38.7279 0
      vertex 21.2562 38.7279 43.5
    endloop
  endfacet
  facet normal 0.998858 0.0477769 0
    outer loop
      vertex 21.2562 38.7279 0
      vertex 21.3141 37.5174 43.5
      vertex 21.3141 37.5174 0
    endloop
  endfacet
  facet normal 0.990672 0.136271 0
    outer loop
      vertex 17.7827 73.5239 43.5
      vertex 17.5537 75.1887 0
      vertex 17.5537 75.1887 43.5
    endloop
  endfacet
  facet normal 0.990672 0.136271 0
    outer loop
      vertex 17.5537 75.1887 0
      vertex 17.7827 73.5239 43.5
      vertex 17.7827 73.5239 0
    endloop
  endfacet
  facet normal 0.997831 -0.065833 0
    outer loop
      vertex 21.3315 26.1417 43.5
      vertex 21.378 26.8465 0
      vertex 21.378 26.8465 43.5
    endloop
  endfacet
  facet normal 0.997831 -0.065833 0
    outer loop
      vertex 21.378 26.8465 0
      vertex 21.3315 26.1417 43.5
      vertex 21.3315 26.1417 0
    endloop
  endfacet
  facet normal 0.99471 0.102726 0
    outer loop
      vertex 19.9188 55.6335 43.5
      vertex 19.7572 57.1983 0
      vertex 19.7572 57.1983 43.5
    endloop
  endfacet
  facet normal 0.99471 0.102726 0
    outer loop
      vertex 19.7572 57.1983 0
      vertex 19.9188 55.6335 43.5
      vertex 19.9188 55.6335 0
    endloop
  endfacet
  facet normal 0.98942 0.14508 0
    outer loop
      vertex 17.0812 78.5146 43.5
      vertex 16.8381 80.1725 0
      vertex 16.8381 80.1725 43.5
    endloop
  endfacet
  facet normal 0.98942 0.14508 0
    outer loop
      vertex 16.8381 80.1725 0
      vertex 17.0812 78.5146 43.5
      vertex 17.0812 78.5146 0
    endloop
  endfacet
  facet normal 0.319115 0.947716 -0
    outer loop
      vertex 5.55735 127.429 0
      vertex 5.39104 127.485 43.5
      vertex 5.55735 127.429 43.5
    endloop
  endfacet
  facet normal 0.319115 0.947716 0
    outer loop
      vertex 5.39104 127.485 43.5
      vertex 5.55735 127.429 0
      vertex 5.39104 127.485 0
    endloop
  endfacet
  facet normal 0.999356 0.0358829 0
    outer loop
      vertex 21.4043 35.2071 43.5
      vertex 21.3635 36.3434 0
      vertex 21.3635 36.3434 43.5
    endloop
  endfacet
  facet normal 0.999356 0.0358829 0
    outer loop
      vertex 21.3635 36.3434 0
      vertex 21.4043 35.2071 43.5
      vertex 21.4043 35.2071 0
    endloop
  endfacet
  facet normal 0.995728 0.0923319 0
    outer loop
      vertex 20.3596 51.0567 43.5
      vertex 20.2201 52.5611 0
      vertex 20.2201 52.5611 43.5
    endloop
  endfacet
  facet normal 0.995728 0.0923319 0
    outer loop
      vertex 20.2201 52.5611 0
      vertex 20.3596 51.0567 43.5
      vertex 20.3596 51.0567 0
    endloop
  endfacet
  facet normal 0.928606 0.371067 0
    outer loop
      vertex 7.57244 124.022 43.5
      vertex 7.34507 124.591 0
      vertex 7.34507 124.591 43.5
    endloop
  endfacet
  facet normal 0.928606 0.371067 0
    outer loop
      vertex 7.34507 124.591 0
      vertex 7.57244 124.022 43.5
      vertex 7.57244 124.022 0
    endloop
  endfacet
  facet normal 0.999336 -0.0364374 0
    outer loop
      vertex 21.4159 27.5982 43.5
      vertex 21.445 28.3963 0
      vertex 21.445 28.3963 43.5
    endloop
  endfacet
  facet normal 0.999336 -0.0364374 0
    outer loop
      vertex 21.445 28.3963 0
      vertex 21.4159 27.5982 43.5
      vertex 21.4159 27.5982 0
    endloop
  endfacet
  facet normal 0.986618 0.163049 0
    outer loop
      vertex 15.5654 88.3452 43.5
      vertex 15.301 89.9451 0
      vertex 15.301 89.9451 43.5
    endloop
  endfacet
  facet normal 0.986618 0.163049 0
    outer loop
      vertex 15.301 89.9451 0
      vertex 15.5654 88.3452 43.5
      vertex 15.5654 88.3452 0
    endloop
  endfacet
  facet normal 0.977438 0.211221 0
    outer loop
      vertex 11.9976 107.522 43.5
      vertex 11.7197 108.808 0
      vertex 11.7197 108.808 43.5
    endloop
  endfacet
  facet normal 0.977438 0.211221 0
    outer loop
      vertex 11.7197 108.808 0
      vertex 11.9976 107.522 43.5
      vertex 11.9976 107.522 0
    endloop
  endfacet
  facet normal 0.987131 0.159913 0
    outer loop
      vertex 15.8268 86.7316 43.5
      vertex 15.5654 88.3452 0
      vertex 15.5654 88.3452 43.5
    endloop
  endfacet
  facet normal 0.987131 0.159913 0
    outer loop
      vertex 15.5654 88.3452 0
      vertex 15.8268 86.7316 43.5
      vertex 15.8268 86.7316 0
    endloop
  endfacet
  facet normal 0.994569 -0.104081 0
    outer loop
      vertex 21.2127 24.876 43.5
      vertex 21.2764 25.4847 0
      vertex 21.2764 25.4847 43.5
    endloop
  endfacet
  facet normal 0.994569 -0.104081 0
    outer loop
      vertex 21.2764 25.4847 0
      vertex 21.2127 24.876 43.5
      vertex 21.2127 24.876 0
    endloop
  endfacet
  facet normal 0.951464 0.307761 0
    outer loop
      vertex 8.52921 121.267 43.5
      vertex 8.28338 122.027 0
      vertex 8.28338 122.027 43.5
    endloop
  endfacet
  facet normal 0.951464 0.307761 0
    outer loop
      vertex 8.28338 122.027 0
      vertex 8.52921 121.267 43.5
      vertex 8.52921 121.267 0
    endloop
  endfacet
  facet normal 0.991839 0.127497 0
    outer loop
      vertex 18.4382 68.5419 43.5
      vertex 18.2252 70.1989 0
      vertex 18.2252 70.1989 43.5
    endloop
  endfacet
  facet normal 0.991839 0.127497 0
    outer loop
      vertex 18.2252 70.1989 0
      vertex 18.4382 68.5419 43.5
      vertex 18.4382 68.5419 0
    endloop
  endfacet
  facet normal 0.989858 0.142063 0
    outer loop
      vertex 17.3197 76.8528 43.5
      vertex 17.0812 78.5146 0
      vertex 17.0812 78.5146 43.5
    endloop
  endfacet
  facet normal 0.989858 0.142063 0
    outer loop
      vertex 17.0812 78.5146 0
      vertex 17.3197 76.8528 43.5
      vertex 17.3197 76.8528 0
    endloop
  endfacet
  facet normal 0.668862 0.743387 -0
    outer loop
      vertex 5.91066 127.158 0
      vertex 5.73061 127.32 43.5
      vertex 5.91066 127.158 43.5
    endloop
  endfacet
  facet normal 0.668862 0.743387 0
    outer loop
      vertex 5.73061 127.32 43.5
      vertex 5.91066 127.158 0
      vertex 5.73061 127.32 0
    endloop
  endfacet
  facet normal 0.872719 0.488223 0
    outer loop
      vertex 6.69496 125.997 43.5
      vertex 6.48965 126.364 0
      vertex 6.48965 126.364 43.5
    endloop
  endfacet
  facet normal 0.872719 0.488223 0
    outer loop
      vertex 6.48965 126.364 0
      vertex 6.69496 125.997 43.5
      vertex 6.69496 125.997 0
    endloop
  endfacet
  facet normal 0.999116 0.0420412 0
    outer loop
      vertex 21.3635 36.3434 43.5
      vertex 21.3141 37.5174 0
      vertex 21.3141 37.5174 43.5
    endloop
  endfacet
  facet normal 0.999116 0.0420412 0
    outer loop
      vertex 21.3141 37.5174 0
      vertex 21.3635 36.3434 43.5
      vertex 21.3635 36.3434 0
    endloop
  endfacet
  facet normal 0.893008 0.450042 0
    outer loop
      vertex 6.90612 125.578 43.5
      vertex 6.69496 125.997 0
      vertex 6.69496 125.997 43.5
    endloop
  endfacet
  facet normal 0.893008 0.450042 0
    outer loop
      vertex 6.69496 125.997 0
      vertex 6.90612 125.578 43.5
      vertex 6.90612 125.578 0
    endloop
  endfacet
  facet normal 0.988541 0.150955 0
    outer loop
      vertex 16.591 81.8247 43.5
      vertex 16.3398 83.4697 0
      vertex 16.3398 83.4697 43.5
    endloop
  endfacet
  facet normal 0.988541 0.150955 0
    outer loop
      vertex 16.3398 83.4697 0
      vertex 16.591 81.8247 43.5
      vertex 16.591 81.8247 0
    endloop
  endfacet
  facet normal 0.997681 0.0680608 0
    outer loop
      vertex 21.0312 42.5663 43.5
      vertex 20.9395 43.9105 0
      vertex 20.9395 43.9105 43.5
    endloop
  endfacet
  facet normal 0.997681 0.0680608 0
    outer loop
      vertex 20.9395 43.9105 0
      vertex 21.0312 42.5663 43.5
      vertex 21.0312 42.5663 0
    endloop
  endfacet
  facet normal 0.990258 0.139247 0
    outer loop
      vertex 17.5537 75.1887 43.5
      vertex 17.3197 76.8528 0
      vertex 17.3197 76.8528 43.5
    endloop
  endfacet
  facet normal 0.990258 0.139247 0
    outer loop
      vertex 17.3197 76.8528 0
      vertex 17.5537 75.1887 43.5
      vertex 17.5537 75.1887 0
    endloop
  endfacet
  facet normal 0.97268 0.23215 0
    outer loop
      vertex 10.8921 112.457 43.5
      vertex 10.6193 113.6 0
      vertex 10.6193 113.6 43.5
    endloop
  endfacet
  facet normal 0.97268 0.23215 0
    outer loop
      vertex 10.6193 113.6 0
      vertex 10.8921 112.457 43.5
      vertex 10.8921 112.457 0
    endloop
  endfacet
  facet normal 0.997368 0.0725003 0
    outer loop
      vertex 20.9395 43.9105 43.5
      vertex 20.8396 45.2848 0
      vertex 20.8396 45.2848 43.5
    endloop
  endfacet
  facet normal 0.997368 0.0725003 0
    outer loop
      vertex 20.8396 45.2848 0
      vertex 20.9395 43.9105 43.5
      vertex 20.9395 43.9105 0
    endloop
  endfacet
  facet normal 0.999705 -0.0242934 0
    outer loop
      vertex 21.445 28.3963 43.5
      vertex 21.4655 29.2399 0
      vertex 21.4655 29.2399 43.5
    endloop
  endfacet
  facet normal 0.999705 -0.0242934 0
    outer loop
      vertex 21.4655 29.2399 0
      vertex 21.445 28.3963 43.5
      vertex 21.445 28.3963 0
    endloop
  endfacet
  facet normal 0.996397 0.0848172 0
    outer loop
      vertex 20.6154 48.1187 43.5
      vertex 20.4914 49.5754 0
      vertex 20.4914 49.5754 43.5
    endloop
  endfacet
  facet normal 0.996397 0.0848172 0
    outer loop
      vertex 20.4914 49.5754 0
      vertex 20.6154 48.1187 43.5
      vertex 20.6154 48.1187 0
    endloop
  endfacet
  facet normal 0.997046 0.0768052 0
    outer loop
      vertex 20.8396 45.2848 43.5
      vertex 20.7315 46.6881 0
      vertex 20.7315 46.6881 43.5
    endloop
  endfacet
  facet normal 0.997046 0.0768052 0
    outer loop
      vertex 20.7315 46.6881 0
      vertex 20.8396 45.2848 43.5
      vertex 20.8396 45.2848 0
    endloop
  endfacet
  facet normal 0.958349 0.285601 0
    outer loop
      vertex 9.03266 119.61 43.5
      vertex 8.77905 120.461 0
      vertex 8.77905 120.461 43.5
    endloop
  endfacet
  facet normal 0.958349 0.285601 0
    outer loop
      vertex 8.77905 120.461 0
      vertex 9.03266 119.61 43.5
      vertex 9.03266 119.61 0
    endloop
  endfacet
  facet normal 0.935857 0.35238 0
    outer loop
      vertex 7.80476 123.405 43.5
      vertex 7.57244 124.022 0
      vertex 7.57244 124.022 43.5
    endloop
  endfacet
  facet normal 0.935857 0.35238 0
    outer loop
      vertex 7.57244 124.022 0
      vertex 7.80476 123.405 43.5
      vertex 7.80476 123.405 0
    endloop
  endfacet
  facet normal 0.997988 0.0634053 0
    outer loop
      vertex 21.1146 41.2536 43.5
      vertex 21.0312 42.5663 0
      vertex 21.0312 42.5663 43.5
    endloop
  endfacet
  facet normal 0.997988 0.0634053 0
    outer loop
      vertex 21.0312 42.5663 0
      vertex 21.1146 41.2536 43.5
      vertex 21.1146 41.2536 0
    endloop
  endfacet
  facet normal 0.999897 0.0143573 0
    outer loop
      vertex 21.4743 32.035 43.5
      vertex 21.4597 33.0518 0
      vertex 21.4597 33.0518 43.5
    endloop
  endfacet
  facet normal 0.999897 0.0143573 0
    outer loop
      vertex 21.4597 33.0518 0
      vertex 21.4743 32.035 43.5
      vertex 21.4743 32.035 0
    endloop
  endfacet
  facet normal 0.993308 0.115499 0
    outer loop
      vertex 19.2308 61.989 43.5
      vertex 19.042 63.6127 0
      vertex 19.042 63.6127 43.5
    endloop
  endfacet
  facet normal 0.993308 0.115499 0
    outer loop
      vertex 19.042 63.6127 0
      vertex 19.2308 61.989 43.5
      vertex 19.2308 61.989 0
    endloop
  endfacet
  facet normal 0.995393 0.0958802 0
    outer loop
      vertex 20.2201 52.5611 43.5
      vertex 20.0731 54.0872 0
      vertex 20.0731 54.0872 43.5
    endloop
  endfacet
  facet normal 0.995393 0.0958802 0
    outer loop
      vertex 20.0731 54.0872 0
      vertex 20.2201 52.5611 43.5
      vertex 20.2201 52.5611 0
    endloop
  endfacet
  facet normal 0.947124 0.320867 0
    outer loop
      vertex 8.28338 122.027 43.5
      vertex 8.04183 122.74 0
      vertex 8.04183 122.74 43.5
    endloop
  endfacet
  facet normal 0.947124 0.320867 0
    outer loop
      vertex 8.04183 122.74 0
      vertex 8.28338 122.027 43.5
      vertex 8.28338 122.027 0
    endloop
  endfacet
  facet normal 0.989 0.147913 0
    outer loop
      vertex 16.8381 80.1725 43.5
      vertex 16.591 81.8247 0
      vertex 16.591 81.8247 43.5
    endloop
  endfacet
  facet normal 0.989 0.147913 0
    outer loop
      vertex 16.591 81.8247 0
      vertex 16.8381 80.1725 43.5
      vertex 16.8381 80.1725 0
    endloop
  endfacet
  facet normal 0.999575 0.0291421 0
    outer loop
      vertex 21.4363 34.1095 43.5
      vertex 21.4043 35.2071 0
      vertex 21.4043 35.2071 43.5
    endloop
  endfacet
  facet normal 0.999575 0.0291421 0
    outer loop
      vertex 21.4043 35.2071 0
      vertex 21.4363 34.1095 43.5
      vertex 21.4363 34.1095 0
    endloop
  endfacet
  facet normal 0.999913 -0.0131716 0
    outer loop
      vertex 21.4655 29.2399 43.5
      vertex 21.4772 30.1281 0
      vertex 21.4772 30.1281 43.5
    endloop
  endfacet
  facet normal 0.999913 -0.0131716 0
    outer loop
      vertex 21.4772 30.1281 0
      vertex 21.4655 29.2399 43.5
      vertex 21.4655 29.2399 0
    endloop
  endfacet
  facet normal 0.75213 0.659014 0
    outer loop
      vertex 6.09729 126.945 43.5
      vertex 5.91066 127.158 0
      vertex 5.91066 127.158 43.5
    endloop
  endfacet
  facet normal 0.75213 0.659014 0
    outer loop
      vertex 5.91066 127.158 0
      vertex 6.09729 126.945 43.5
      vertex 6.09729 126.945 0
    endloop
  endfacet
  facet normal 0.99221 0.124575 0
    outer loop
      vertex 18.6455 66.8908 43.5
      vertex 18.4382 68.5419 0
      vertex 18.4382 68.5419 43.5
    endloop
  endfacet
  facet normal 0.99221 0.124575 0
    outer loop
      vertex 18.4382 68.5419 0
      vertex 18.6455 66.8908 43.5
      vertex 18.6455 66.8908 0
    endloop
  endfacet
  facet normal 0.982457 0.186488 0
    outer loop
      vertex 13.6682 99.1706 43.5
      vertex 13.3908 100.632 0
      vertex 13.3908 100.632 43.5
    endloop
  endfacet
  facet normal 0.982457 0.186488 0
    outer loop
      vertex 13.3908 100.632 0
      vertex 13.6682 99.1706 43.5
      vertex 13.6682 99.1706 0
    endloop
  endfacet
  facet normal 0.974017 0.226473 0
    outer loop
      vertex 11.1667 111.276 43.5
      vertex 10.8921 112.457 0
      vertex 10.8921 112.457 43.5
    endloop
  endfacet
  facet normal 0.974017 0.226473 0
    outer loop
      vertex 10.8921 112.457 0
      vertex 11.1667 111.276 43.5
      vertex 11.1667 111.276 0
    endloop
  endfacet
  facet normal 0.996065 0.0886258 0
    outer loop
      vertex 20.4914 49.5754 43.5
      vertex 20.3596 51.0567 0
      vertex 20.3596 51.0567 43.5
    endloop
  endfacet
  facet normal 0.996065 0.0886258 0
    outer loop
      vertex 20.3596 51.0567 0
      vertex 20.4914 49.5754 43.5
      vertex 20.4914 49.5754 0
    endloop
  endfacet
  facet normal 0.991453 0.130467 0
    outer loop
      vertex 18.2252 70.1989 43.5
      vertex 18.0066 71.8601 0
      vertex 18.0066 71.8601 43.5
    endloop
  endfacet
  facet normal 0.991453 0.130467 0
    outer loop
      vertex 18.0066 71.8601 0
      vertex 18.2252 70.1989 43.5
      vertex 18.2252 70.1989 0
    endloop
  endfacet
  facet normal 0.981721 0.190324 0
    outer loop
      vertex 13.3908 100.632 43.5
      vertex 13.1126 102.067 0
      vertex 13.1126 102.067 43.5
    endloop
  endfacet
  facet normal 0.981721 0.190324 0
    outer loop
      vertex 13.1126 102.067 0
      vertex 13.3908 100.632 43.5
      vertex 13.3908 100.632 0
    endloop
  endfacet
  facet normal 0.979334 0.202251 0
    outer loop
      vertex 12.555 104.854 43.5
      vertex 12.2762 106.204 0
      vertex 12.2762 106.204 43.5
    endloop
  endfacet
  facet normal 0.979334 0.202251 0
    outer loop
      vertex 12.2762 106.204 0
      vertex 12.555 104.854 43.5
      vertex 12.555 104.854 0
    endloop
  endfacet
  facet normal 0.980141 0.198303 0
    outer loop
      vertex 12.834 103.475 43.5
      vertex 12.555 104.854 0
      vertex 12.555 104.854 43.5
    endloop
  endfacet
  facet normal 0.980141 0.198303 0
    outer loop
      vertex 12.555 104.854 0
      vertex 12.834 103.475 43.5
      vertex 12.834 103.475 0
    endloop
  endfacet
  facet normal 0.995058 0.0992935 0
    outer loop
      vertex 20.0731 54.0872 43.5
      vertex 19.9188 55.6335 0
      vertex 19.9188 55.6335 43.5
    endloop
  endfacet
  facet normal 0.995058 0.0992935 0
    outer loop
      vertex 19.9188 55.6335 0
      vertex 20.0731 54.0872 43.5
      vertex 20.0731 54.0872 0
    endloop
  endfacet
  facet normal 0.982512 -0.186198 0
    outer loop
      vertex 20.2681 19.6439 43.5
      vertex 20.9652 23.3223 0
      vertex 20.9652 23.3223 43.5
    endloop
  endfacet
  facet normal 0.982512 -0.186198 0
    outer loop
      vertex 20.9652 23.3223 0
      vertex 20.2681 19.6439 43.5
      vertex 20.2681 19.6439 0
    endloop
  endfacet
endsolid OpenSCAD_Model
