solid OpenSCAD_Model
  facet normal -1 0 0
    outer loop
      vertex 0 78 0
      vertex 0 76 2
      vertex 0 78 6.8
    endloop
  endfacet
  facet normal -1 0 0
    outer loop
      vertex 0 78 0
      vertex 0 2 2
      vertex 0 76 2
    endloop
  endfacet
  facet normal -1 -0 0
    outer loop
      vertex 0 2 2
      vertex 0 0 0
      vertex 0 2 127.5
    endloop
  endfacet
  facet normal -1 0 0
    outer loop
      vertex 0 0 0
      vertex 0 2 2
      vertex 0 78 0
    endloop
  endfacet
  facet normal -1 0 0
    outer loop
      vertex 0 76 4.8
      vertex 0 78 6.8
      vertex 0 76 2
    endloop
  endfacet
  facet normal -1 0 0
    outer loop
      vertex 0 48 6.8
      vertex 0 76 4.8
      vertex 0 48 4.8
    endloop
  endfacet
  facet normal -1 0 0
    outer loop
      vertex 0 76 4.8
      vertex 0 48 6.8
      vertex 0 78 6.8
    endloop
  endfacet
  facet normal -1 0 0
    outer loop
      vertex 0 78 122.7
      vertex 0 76 124.7
      vertex 0 78 129.5
    endloop
  endfacet
  facet normal -1 0 0
    outer loop
      vertex 0 48 122.7
      vertex 0 76 124.7
      vertex 0 78 122.7
    endloop
  endfacet
  facet normal -1 -0 0
    outer loop
      vertex 0 76 124.7
      vertex 0 48 122.7
      vertex 0 48 124.7
    endloop
  endfacet
  facet normal -1 0 0
    outer loop
      vertex 0 76 127.5
      vertex 0 78 129.5
      vertex 0 76 124.7
    endloop
  endfacet
  facet normal -1 0 0
    outer loop
      vertex 0 48 129.5
      vertex 0 76 127.5
      vertex 0 48 127.5
    endloop
  endfacet
  facet normal -1 0 0
    outer loop
      vertex 0 76 127.5
      vertex 0 48 129.5
      vertex 0 78 129.5
    endloop
  endfacet
  facet normal -1 0 0
    outer loop
      vertex 0 2 127.5
      vertex 0 48 129.5
      vertex 0 48 127.5
    endloop
  endfacet
  facet normal -1 0 0
    outer loop
      vertex 0 2 127.5
      vertex 0 0 129.5
      vertex 0 48 129.5
    endloop
  endfacet
  facet normal -1 0 0
    outer loop
      vertex 0 0 129.5
      vertex 0 2 127.5
      vertex 0 0 0
    endloop
  endfacet
  facet normal -0 0 1
    outer loop
      vertex 0 76 124.7
      vertex 50 48 124.7
      vertex 50 76 124.7
    endloop
  endfacet
  facet normal 0 0 1
    outer loop
      vertex 50 48 124.7
      vertex 0 76 124.7
      vertex 0 48 124.7
    endloop
  endfacet
  facet normal 0 0 -1
    outer loop
      vertex 0 48 122.7
      vertex 50 78 122.7
      vertex 50 48 122.7
    endloop
  endfacet
  facet normal -0 0 -1
    outer loop
      vertex 50 78 122.7
      vertex 0 48 122.7
      vertex 0 78 122.7
    endloop
  endfacet
  facet normal 1 0 0
    outer loop
      vertex 50 78 129.5
      vertex 50 76 127.5
      vertex 50 78 122.7
    endloop
  endfacet
  facet normal 1 -0 0
    outer loop
      vertex 50 48 129.5
      vertex 50 76 127.5
      vertex 50 78 129.5
    endloop
  endfacet
  facet normal 1 0 0
    outer loop
      vertex 50 48 129.5
      vertex 50 48 127.5
      vertex 50 76 127.5
    endloop
  endfacet
  facet normal 1 0 0
    outer loop
      vertex 50 48 129.5
      vertex 50 2 127.5
      vertex 50 48 127.5
    endloop
  endfacet
  facet normal 1 0 0
    outer loop
      vertex 50 2 127.5
      vertex 50 0 129.5
      vertex 50 2 2
    endloop
  endfacet
  facet normal 1 -0 0
    outer loop
      vertex 50 0 129.5
      vertex 50 2 127.5
      vertex 50 48 129.5
    endloop
  endfacet
  facet normal 1 -0 0
    outer loop
      vertex 50 76 124.7
      vertex 50 78 122.7
      vertex 50 76 127.5
    endloop
  endfacet
  facet normal 1 0 0
    outer loop
      vertex 50 48 122.7
      vertex 50 76 124.7
      vertex 50 48 124.7
    endloop
  endfacet
  facet normal 1 0 0
    outer loop
      vertex 50 76 124.7
      vertex 50 48 122.7
      vertex 50 78 122.7
    endloop
  endfacet
  facet normal 1 0 0
    outer loop
      vertex 50 78 6.8
      vertex 50 76 4.8
      vertex 50 78 0
    endloop
  endfacet
  facet normal 1 -0 0
    outer loop
      vertex 50 48 6.8
      vertex 50 76 4.8
      vertex 50 78 6.8
    endloop
  endfacet
  facet normal 1 0 0
    outer loop
      vertex 50 76 4.8
      vertex 50 48 6.8
      vertex 50 48 4.8
    endloop
  endfacet
  facet normal 1 -0 0
    outer loop
      vertex 50 76 2
      vertex 50 78 0
      vertex 50 76 4.8
    endloop
  endfacet
  facet normal 1 -0 0
    outer loop
      vertex 50 2 2
      vertex 50 78 0
      vertex 50 76 2
    endloop
  endfacet
  facet normal 1 0 0
    outer loop
      vertex 50 2 2
      vertex 50 0 0
      vertex 50 78 0
    endloop
  endfacet
  facet normal 1 0 0
    outer loop
      vertex 50 0 0
      vertex 50 2 2
      vertex 50 0 129.5
    endloop
  endfacet
  facet normal 0 -1 0
    outer loop
      vertex 0 48 122.7
      vertex 50 48 124.7
      vertex 0 48 124.7
    endloop
  endfacet
  facet normal 0 -1 -0
    outer loop
      vertex 50 48 124.7
      vertex 0 48 122.7
      vertex 50 48 122.7
    endloop
  endfacet
  facet normal 0 1 -0
    outer loop
      vertex 50 78 122.7
      vertex 0 78 129.5
      vertex 50 78 129.5
    endloop
  endfacet
  facet normal 0 1 0
    outer loop
      vertex 0 78 129.5
      vertex 50 78 122.7
      vertex 0 78 122.7
    endloop
  endfacet
  facet normal -0 0 1
    outer loop
      vertex 0 78 129.5
      vertex 50 48 129.5
      vertex 50 78 129.5
    endloop
  endfacet
  facet normal 0 0 1
    outer loop
      vertex 50 48 129.5
      vertex 0 78 129.5
      vertex 0 48 129.5
    endloop
  endfacet
  facet normal 0 0 -1
    outer loop
      vertex 0 48 127.5
      vertex 50 76 127.5
      vertex 50 48 127.5
    endloop
  endfacet
  facet normal -0 0 -1
    outer loop
      vertex 50 76 127.5
      vertex 0 48 127.5
      vertex 0 76 127.5
    endloop
  endfacet
  facet normal 0 -1 0
    outer loop
      vertex 0 76 124.7
      vertex 50 76 127.5
      vertex 0 76 127.5
    endloop
  endfacet
  facet normal 0 -1 -0
    outer loop
      vertex 50 76 127.5
      vertex 0 76 124.7
      vertex 50 76 124.7
    endloop
  endfacet
  facet normal -0 0 1
    outer loop
      vertex 0 76 2
      vertex 50 2 2
      vertex 50 76 2
    endloop
  endfacet
  facet normal 0 0 1
    outer loop
      vertex 50 2 2
      vertex 0 76 2
      vertex 0 2 2
    endloop
  endfacet
  facet normal 0 0 -1
    outer loop
      vertex 0 0 0
      vertex 50 78 0
      vertex 50 0 0
    endloop
  endfacet
  facet normal -0 0 -1
    outer loop
      vertex 50 78 0
      vertex 0 0 0
      vertex 0 78 0
    endloop
  endfacet
  facet normal 0 1 -0
    outer loop
      vertex 50 78 0
      vertex 0 78 6.8
      vertex 50 78 6.8
    endloop
  endfacet
  facet normal 0 1 0
    outer loop
      vertex 0 78 6.8
      vertex 50 78 0
      vertex 0 78 0
    endloop
  endfacet
  facet normal -0 0 1
    outer loop
      vertex 0 78 6.8
      vertex 50 48 6.8
      vertex 50 78 6.8
    endloop
  endfacet
  facet normal 0 0 1
    outer loop
      vertex 50 48 6.8
      vertex 0 78 6.8
      vertex 0 48 6.8
    endloop
  endfacet
  facet normal 0 0 -1
    outer loop
      vertex 0 48 4.8
      vertex 50 76 4.8
      vertex 50 48 4.8
    endloop
  endfacet
  facet normal -0 0 -1
    outer loop
      vertex 50 76 4.8
      vertex 0 48 4.8
      vertex 0 76 4.8
    endloop
  endfacet
  facet normal 0 -1 0
    outer loop
      vertex 0 48 4.8
      vertex 50 48 6.8
      vertex 0 48 6.8
    endloop
  endfacet
  facet normal 0 -1 -0
    outer loop
      vertex 50 48 6.8
      vertex 0 48 4.8
      vertex 50 48 4.8
    endloop
  endfacet
  facet normal 0 -1 0
    outer loop
      vertex 0 76 2
      vertex 50 76 4.8
      vertex 0 76 4.8
    endloop
  endfacet
  facet normal 0 -1 -0
    outer loop
      vertex 50 76 4.8
      vertex 0 76 2
      vertex 50 76 2
    endloop
  endfacet
  facet normal 0 -1 0
    outer loop
      vertex 0 0 0
      vertex 50 0 129.5
      vertex 0 0 129.5
    endloop
  endfacet
  facet normal 0 -1 -0
    outer loop
      vertex 50 0 129.5
      vertex 0 0 0
      vertex 50 0 0
    endloop
  endfacet
  facet normal -0 0 1
    outer loop
      vertex 0 48 129.5
      vertex 50 0 129.5
      vertex 50 48 129.5
    endloop
  endfacet
  facet normal 0 0 1
    outer loop
      vertex 50 0 129.5
      vertex 0 48 129.5
      vertex 0 0 129.5
    endloop
  endfacet
  facet normal 0 0 -1
    outer loop
      vertex 0 2 127.5
      vertex 50 48 127.5
      vertex 50 2 127.5
    endloop
  endfacet
  facet normal -0 0 -1
    outer loop
      vertex 50 48 127.5
      vertex 0 2 127.5
      vertex 0 48 127.5
    endloop
  endfacet
  facet normal 0 1 -0
    outer loop
      vertex 50 2 2
      vertex 0 2 127.5
      vertex 50 2 127.5
    endloop
  endfacet
  facet normal 0 1 0
    outer loop
      vertex 0 2 127.5
      vertex 50 2 2
      vertex 0 2 2
    endloop
  endfacet
endsolid OpenSCAD_Model
